<?xml version="1.0" standalone="no"?>
<!DOCTYPE svg PUBLIC "-//W3C//DTD SVG 20010904//EN"
 "http://www.w3.org/TR/2001/REC-SVG-20010904/DTD/svg10.dtd">
<svg version="1.0" xmlns="http://www.w3.org/2000/svg"
 width="1280.000000pt" height="1208.000000pt" viewBox="0 0 1280.000000 1208.000000"
 preserveAspectRatio="xMidYMid meet">
<metadata>
Created by potrace 1.15, written by Peter Selinger 2001-2017
</metadata>
<g transform="translate(0.000000,1208.000000) scale(0.100000,-0.100000)"
fill="#ff5722" stroke="none">
<path d="M1755 11158 c3 -7 45 -249 94 -538 50 -289 117 -683 151 -876 33
-193 60 -355 60 -362 0 -8 -827 -822 -1230 -1209 -41 -39 -72 -74 -70 -76 3
-3 399 -62 880 -131 481 -70 886 -129 900 -132 22 -4 72 -99 429 -824 223
-451 406 -819 407 -817 2 1 184 369 404 817 221 448 403 816 405 818 3 4 1772
262 1793 262 8 0 12 4 10 9 -1 5 -217 217 -478 471 -261 255 -553 540 -649
634 l-173 171 50 295 c28 162 97 564 153 892 56 329 100 600 97 603 -3 3 -358
-179 -788 -405 -430 -226 -792 -416 -805 -422 -20 -9 -64 11 -347 160 -177 93
-538 283 -801 421 -263 138 -482 251 -487 251 -5 0 -7 -6 -5 -12z m857 -493
c413 -217 757 -395 763 -395 6 0 354 180 774 401 419 221 765 398 768 395 5
-5 -126 -791 -147 -881 -21 -92 4 71 70 455 37 217 67 396 65 398 -1 2 -345
-177 -764 -397 -419 -221 -764 -401 -766 -401 -2 0 -171 88 -377 196 -205 108
-548 288 -762 401 -213 112 -390 203 -391 201 -2 -2 3 -37 10 -78 18 -95 17
-136 0 -50 -27 131 -29 164 -12 157 9 -3 355 -184 769 -402z m35 -106 c646
-340 728 -380 749 -370 20 9 860 450 1310 687 67 35 123 64 126 64 2 0 -7 -68
-21 -152 -13 -83 -26 -147 -28 -141 -2 6 6 66 17 133 11 67 20 124 18 125 -2
1 -327 -168 -723 -376 l-719 -378 -181 94 c-99 52 -423 222 -720 378 -297 157
-541 284 -543 282 -2 -1 20 -136 48 -300 28 -163 49 -302 46 -308 -2 -7 -5 -6
-5 3 -1 8 -25 156 -55 328 -29 171 -51 312 -48 312 2 0 330 -171 729 -381z
m-688 -204 c44 -258 83 -490 85 -515 l6 -45 -10 40 c-14 60 -170 978 -169 995
1 30 10 -15 88 -475z m767 75 c356 -188 652 -339 658 -336 6 2 315 164 686
360 371 195 676 352 678 348 1 -4 -4 -39 -12 -77 l-15 -70 6 58 c3 31 3 57 -1
57 -5 0 -771 -401 -1176 -616 l-175 -93 -100 54 c-285 152 -1246 655 -1250
655 -3 0 -5 -12 -5 -27 0 -37 -6 -26 -14 25 l-6 43 39 -20 c21 -11 330 -174
687 -361z m-666 82 c18 -106 30 -195 28 -198 -4 -4 -69 367 -68 390 0 31 12
-22 40 -192z m673 -174 c347 -182 636 -331 642 -331 6 0 296 149 644 332 348
183 635 330 638 328 2 -3 -1 -41 -8 -83 -7 -43 -14 -73 -16 -67 -2 6 0 35 6
65 5 29 8 54 6 56 -1 1 -287 -147 -635 -329 l-632 -332 -55 27 c-31 15 -317
164 -636 332 -318 168 -580 304 -582 302 -1 -2 17 -118 41 -258 24 -140 43
-262 41 -270 -2 -13 -98 530 -97 553 0 4 3 7 6 7 3 0 290 -149 637 -332z
m1936 -7 c-29 -171 -55 -309 -57 -306 -2 2 19 144 49 314 29 171 54 309 57
307 2 -3 -20 -144 -49 -315z m108 262 c-3 -10 -5 -4 -5 12 0 17 2 24 5 18 2
-7 2 -21 0 -30z m-33 -197 c-15 -92 -29 -164 -31 -162 -3 3 8 79 23 170 15 92
29 164 31 162 3 -3 -8 -79 -23 -170z m-1962 -172 c321 -169 588 -307 593 -307
6 0 277 141 603 313 326 171 595 310 596 308 2 -1 -22 -149 -53 -327 -30 -178
-57 -319 -59 -313 -1 5 20 144 48 307 28 164 50 299 48 300 -2 2 -266 -136
-588 -306 -322 -169 -589 -308 -595 -308 -5 0 -273 139 -595 308 -322 170
-586 307 -588 306 -2 -1 9 -71 23 -155 14 -84 24 -157 22 -163 -2 -6 -17 71
-34 172 -22 134 -26 181 -17 177 7 -3 275 -143 596 -312z m1793 -69 c-30 -176
-69 -405 -87 -509 -17 -104 -33 -185 -35 -179 -2 6 32 222 76 480 44 257 84
488 88 513 4 25 8 38 10 30 2 -8 -22 -159 -52 -335z m-1659 -89 c247 -130 454
-236 460 -236 5 0 256 130 559 289 302 159 551 288 552 287 2 -1 -24 -160 -57
-352 -33 -192 -74 -434 -92 -538 -17 -104 -33 -185 -35 -179 -2 6 32 222 76
480 96 556 95 553 88 553 -3 0 -250 -129 -549 -286 l-543 -285 -65 34 c-425
227 -1023 537 -1027 533 -3 -2 7 -77 22 -166 15 -89 25 -163 23 -166 -3 -2
-17 69 -32 158 -15 90 -30 176 -33 192 l-6 29 104 -55 c57 -30 307 -162 555
-292z m-766 -79 c28 -165 49 -304 48 -309 -4 -10 -109 598 -107 617 2 22 10
-22 59 -308z m-113 256 c-3 -10 -5 -4 -5 12 0 17 2 24 5 18 2 -7 2 -21 0 -30z
m832 -240 l506 -266 85 45 c502 266 933 489 937 484 3 -2 -12 -105 -33 -228
-21 -123 -40 -216 -41 -208 -2 8 12 103 31 210 19 107 33 196 31 198 -1 2
-227 -115 -501 -259 -274 -144 -503 -262 -509 -262 -6 0 -235 118 -509 262
-274 144 -500 261 -501 259 -2 -2 28 -183 66 -403 38 -220 68 -407 67 -415 -3
-13 -149 821 -148 843 0 4 3 7 6 7 3 0 234 -120 513 -267z m-774 -67 c25 -147
44 -273 42 -279 -3 -10 -99 539 -97 558 3 21 11 -18 55 -279z m2559 -67 c-32
-188 -60 -337 -62 -331 -2 6 22 156 52 335 31 179 56 331 56 338 0 7 3 10 6 6
3 -3 -20 -159 -52 -348z m-2354 -12 c28 -165 49 -304 48 -309 -4 -10 -109 598
-107 617 2 22 10 -22 59 -308z m617 33 l458 -240 55 29 c625 329 882 462 884
459 2 -1 -33 -214 -78 -472 -44 -258 -82 -464 -84 -458 -1 5 31 209 73 452 42
243 75 443 73 445 -2 2 -210 -106 -463 -239 l-459 -243 -121 63 c-66 35 -273
144 -460 242 -187 99 -341 179 -343 177 -2 -1 5 -46 14 -99 9 -54 14 -99 12
-102 -3 -2 -14 50 -25 116 -15 93 -17 120 -7 116 7 -3 219 -113 471 -246z
m1778 -151 l-66 -382 33 -34 c18 -19 299 -294 625 -611 326 -317 588 -579 582
-581 -11 -3 -10 -5 -741 708 -280 272 -508 499 -508 505 -1 25 135 797 138
788 2 -6 -27 -182 -63 -393z m-2425 -75 c38 -226 70 -418 70 -427 0 -19 -1028
-1022 -1038 -1012 -4 3 144 153 328 333 184 179 417 407 518 507 l183 181 -70
409 c-63 364 -78 463 -66 430 2 -5 36 -195 75 -421z m145 -103 c36 -212 65
-392 63 -401 -3 -15 -804 -805 -864 -853 -14 -11 -27 -17 -30 -15 -3 4 555
555 850 838 l38 38 -66 383 c-36 211 -68 404 -71 429 l-5 45 10 -40 c5 -22 39
-213 75 -424z m535 224 c217 -114 402 -211 410 -215 11 -6 148 62 440 215 234
123 426 222 427 221 1 -1 -12 -86 -29 -189 -17 -103 -33 -185 -36 -183 -2 3 8
77 23 166 15 89 25 163 22 166 -2 3 -190 -93 -417 -212 l-412 -217 -37 18
c-20 9 -206 107 -415 217 -208 109 -381 197 -384 194 -3 -3 29 -205 72 -449
42 -244 76 -452 76 -462 0 -16 -79 -96 -582 -584 -54 -52 -101 -92 -105 -88
-5 6 216 226 601 598 l79 76 -77 449 c-42 247 -79 462 -82 477 -5 26 -4 28 13
19 10 -5 196 -103 413 -217z m1609 -94 c-29 -171 -54 -309 -57 -307 -2 3 20
145 49 315 29 171 55 309 57 306 2 -2 -19 -144 -49 -314z m-2072 162 c-3 -10
-5 -4 -5 12 0 17 2 24 5 18 2 -7 2 -21 0 -30z m1918 -317 c-30 -176 -55 -322
-55 -326 0 -4 217 -217 481 -475 265 -258 477 -471 471 -473 -13 -4 -962 916
-962 933 -1 23 115 689 118 675 1 -8 -23 -159 -53 -334z m-1404 134 c199 -104
367 -190 374 -190 6 0 179 88 384 196 205 108 375 193 378 191 3 -3 -3 -54
-13 -113 -10 -60 -19 -103 -21 -97 -2 6 3 48 11 94 8 46 13 85 11 87 -1 2
-170 -85 -374 -192 -204 -108 -373 -196 -376 -196 -3 0 -172 88 -376 195 -204
108 -373 195 -374 193 -1 -2 17 -118 41 -258 24 -140 43 -262 41 -270 -2 -13
-97 529 -97 554 0 12 1 12 391 -194z m-441 -209 c33 -195 60 -362 60 -371 0
-23 -744 -749 -756 -737 -4 3 106 115 242 249 137 133 307 299 377 368 l129
126 -61 355 c-54 316 -68 406 -56 374 2 -5 31 -169 65 -364z m1757 312 c-3
-10 -5 -4 -5 12 0 17 2 24 5 18 2 -7 2 -21 0 -30z m-2222 -204 c19 -113 35
-213 35 -221 0 -8 -228 -238 -507 -509 -705 -687 -731 -711 -743 -707 -6 2
169 177 387 390 219 212 501 487 626 610 l229 223 -36 205 c-32 183 -42 255
-31 225 2 -5 20 -103 40 -216z m2165 -135 l-51 -298 198 -196 c109 -107 294
-289 411 -404 117 -115 210 -211 208 -214 -8 -7 -146 123 -510 481 l-320 313
54 318 c30 175 56 314 58 308 1 -5 -20 -144 -48 -308z m-1226 131 c183 -96
337 -175 341 -175 4 0 158 79 342 176 184 97 336 174 337 172 1 -2 -22 -149
-53 -327 -30 -178 -57 -319 -59 -313 -1 5 20 144 48 307 28 164 49 299 48 300
-2 1 -152 -76 -333 -171 l-331 -174 -329 174 c-182 95 -331 172 -333 171 -2
-1 18 -123 43 -270 25 -147 44 -272 41 -278 -2 -7 -5 -6 -5 3 -1 8 -23 142
-50 298 -26 155 -46 282 -44 282 2 0 154 -79 337 -175z m-794 -105 l33 -195
-214 -211 c-382 -375 -881 -859 -890 -862 -31 -12 25 47 319 333 180 175 427
417 550 537 l222 218 -30 179 c-16 99 -30 185 -30 192 0 36 11 -15 40 -191z
m-65 9 l28 -171 -54 -52 c-30 -29 -245 -239 -479 -466 -234 -228 -473 -461
-531 -518 -59 -57 -112 -103 -118 -101 -10 4 450 458 1036 1024 l135 130 -26
151 c-26 153 -29 174 -22 174 1 0 16 -77 31 -171z m1879 -118 c-26 -154 -50
-279 -52 -276 -2 2 17 130 44 284 26 155 49 279 52 277 2 -3 -17 -131 -44
-285z m75 65 c-18 -108 -34 -194 -37 -192 -2 3 11 93 29 200 18 108 34 194 37
192 2 -3 -11 -93 -29 -200z m-915 -33 l160 -85 125 66 c69 36 202 106 296 155
93 49 171 88 172 87 1 -1 -23 -150 -54 -330 l-56 -328 239 -233 c199 -193 236
-233 219 -238 -11 -3 -150 -24 -310 -47 -159 -22 -300 -43 -312 -45 -18 -4
-52 -65 -170 -307 l-148 -301 -147 299 c-116 236 -151 301 -170 307 -13 4
-153 25 -313 48 -159 22 -299 43 -310 46 -17 5 20 45 219 238 l239 232 -52
309 c-29 170 -55 320 -58 333 -6 26 -25 35 431 -206z m-829 -25 l29 -172 -115
-109 c-63 -61 -277 -270 -476 -465 -199 -194 -368 -352 -374 -350 -7 2 205
215 470 473 264 257 481 471 481 474 0 3 -11 71 -25 151 -25 146 -28 170 -21
170 1 0 16 -77 31 -172z m2190 55 l-17 -98 155 -150 c613 -592 1027 -1000
1017 -1003 -6 -2 -68 52 -138 120 -70 67 -305 296 -522 507 -217 211 -424 412
-459 447 l-64 62 18 111 c10 62 20 109 22 107 3 -3 -2 -49 -12 -103z m-140
-70 l-16 -97 173 -171 c95 -94 328 -322 518 -507 190 -185 342 -340 338 -343
-9 -10 -1038 993 -1038 1011 0 29 33 214 38 210 2 -3 -3 -49 -13 -103z m-1905
-79 c11 -67 20 -128 20 -137 0 -19 -806 -807 -826 -807 -8 0 81 93 198 207
117 114 304 298 416 408 l203 201 -20 121 c-19 111 -25 163 -16 138 3 -5 13
-64 25 -131z m1965 58 c-6 -48 -6 -49 42 -92 121 -111 1053 -1025 1053 -1033
0 -5 -4 -7 -9 -5 -10 3 -525 503 -899 872 l-204 201 7 52 c3 29 9 53 12 53 3
0 2 -22 -2 -48z m-198 -39 c-3 -10 -5 -4 -5 12 0 17 2 24 5 18 2 -7 2 -21 0
-30z m-1557 -135 l23 -143 -184 -180 c-368 -361 -429 -419 -436 -411 -4 4 33
46 82 94 50 48 188 183 308 301 l218 214 -20 122 c-22 126 -24 145 -17 145 2
0 14 -64 26 -142z m1546 65 l-7 -48 338 -327 c429 -416 561 -548 544 -548 -7
0 -202 185 -434 412 -232 226 -430 419 -441 429 -16 14 -17 26 -12 73 4 31 10
56 13 56 3 0 2 -21 -1 -47z m-206 -84 l-12 -72 88 -87 c49 -47 203 -197 343
-333 140 -136 252 -250 248 -254 -7 -7 -35 19 -441 415 l-249 243 13 85 c7 47
14 83 17 80 3 -2 0 -37 -7 -77z m65 13 l-6 -48 373 -364 c205 -200 375 -367
376 -372 2 -4 0 -8 -5 -8 -8 0 -429 405 -677 650 l-79 78 7 56 c4 31 10 56 13
56 3 0 2 -22 -2 -48z m-1315 -153 c0 -22 -49 -74 -270 -289 -149 -145 -274
-260 -278 -256 -4 4 116 128 267 274 l274 267 -12 66 c-6 36 -10 72 -10 80 2
20 28 -111 29 -142z m1105 43 l-6 -49 273 -266 c150 -146 270 -269 266 -273
-4 -4 -129 111 -278 256 -187 182 -270 269 -270 284 0 31 12 96 17 96 3 0 2
-22 -2 -48z m373 -312 c166 -162 302 -299 302 -303 0 -5 -5 -7 -10 -5 -6 2
-145 135 -310 296 -273 268 -300 296 -299 325 1 30 2 30 8 7 3 -15 126 -142
309 -320z"/>
<path d="M7390 11098 c0 -7 61 -366 135 -798 75 -432 143 -832 152 -888 l17
-104 -144 -142 c-80 -78 -374 -364 -653 -636 -456 -444 -506 -495 -485 -502
13 -4 419 -64 903 -134 484 -70 881 -127 881 -128 1 0 183 -369 405 -819 221
-449 406 -814 410 -810 4 5 187 373 407 818 l399 810 89 14 c49 7 452 66 896
130 445 65 810 120 813 123 3 3 -90 100 -207 215 -357 350 -970 946 -1031
1004 l-59 54 155 900 c85 495 154 901 152 903 -1 2 -164 -82 -361 -186 -1025
-539 -1248 -655 -1258 -655 -6 0 -357 182 -781 405 -423 223 -785 413 -802
422 -25 12 -33 13 -33 4z m886 -514 l731 -384 773 406 c424 223 773 404 774
402 1 -2 -14 -95 -33 -207 -19 -112 -37 -199 -39 -193 -1 5 11 90 28 188 16
97 29 178 28 179 -2 2 -336 -173 -743 -388 -407 -214 -752 -394 -766 -400 -24
-10 -95 25 -784 387 -416 219 -759 395 -762 392 -3 -3 0 -40 6 -82 7 -41 11
-78 8 -80 -2 -3 -10 30 -17 73 -6 43 -14 91 -17 106 l-6 29 44 -22 c24 -12
373 -195 775 -406z m629 -419 l101 -54 729 384 c402 211 731 382 732 381 1 -1
-7 -59 -19 -129 -12 -70 -23 -125 -26 -123 -2 3 4 50 13 106 9 56 15 103 12
106 -2 3 -305 -153 -672 -346 -367 -194 -691 -363 -720 -377 l-51 -25 -605
317 c-332 175 -655 345 -717 378 -62 32 -115 58 -117 56 -2 -3 21 -146 51
-319 30 -173 53 -322 51 -330 -2 -15 -117 641 -117 671 0 12 174 -75 628 -313
345 -181 672 -354 727 -383z m-1398 588 c-3 -10 -5 -4 -5 12 0 17 2 24 5 18 2
-7 2 -21 0 -30z m272 -84 c75 -39 379 -199 676 -355 298 -156 546 -284 553
-284 6 0 315 160 687 356 372 196 679 354 681 351 3 -2 -6 -64 -18 -138 -12
-74 -24 -127 -25 -119 -2 8 5 63 15 123 11 59 17 107 15 107 -2 0 -36 -18 -76
-39 -135 -73 -1275 -671 -1280 -671 -2 0 -307 159 -678 354 -370 195 -675 353
-677 351 -2 -1 15 -112 38 -245 22 -133 39 -247 37 -253 -2 -6 -21 93 -42 219
-53 315 -52 314 -47 314 3 0 66 -32 141 -71z m-179 -428 c45 -260 79 -478 78
-483 -4 -11 -170 949 -168 967 3 22 12 -27 90 -484z m822 3 c318 -167 581
-304 585 -304 5 0 294 150 643 334 694 365 656 350 631 251 l-10 -40 5 48 5
48 -93 -49 c-51 -28 -338 -179 -637 -336 l-544 -286 -627 330 c-345 182 -635
330 -644 330 -9 0 -16 8 -16 20 0 25 -57 53 702 -346z m1995 329 c-3 -10 -5
-4 -5 12 0 17 2 24 5 18 2 -7 2 -21 0 -30z m-21 -501 c-47 -274 -86 -505 -86
-512 0 -7 -3 -11 -6 -7 -3 3 34 238 82 522 49 284 90 512 92 507 2 -6 -35
-235 -82 -510z m-2616 235 c23 -132 39 -244 38 -249 -4 -11 -90 478 -87 497 2
21 9 -17 49 -248z m2584 -46 c-26 -154 -50 -279 -52 -276 -2 2 17 130 44 284
26 155 49 279 52 277 2 -3 -17 -131 -44 -285z m-1319 -392 c22 10 292 152 600
314 308 163 561 294 562 293 2 -1 -4 -34 -12 -72 -12 -61 -13 -63 -9 -16 3 28
4 52 1 52 -3 0 -270 -139 -593 -309 l-589 -310 -60 33 c-151 83 -1117 587
-1120 584 -1 -1 10 -79 26 -173 16 -93 28 -177 26 -185 -2 -14 -68 360 -67
386 0 7 269 -130 598 -303 l597 -314 40 20z m1174 292 c-29 -171 -54 -309 -57
-307 -2 3 20 145 49 315 29 171 55 309 57 306 2 -2 -19 -144 -49 -314z m75 65
c-20 -125 -39 -224 -42 -222 -2 3 13 106 34 230 20 125 39 224 42 222 2 -3
-13 -106 -34 -230z m-1828 -181 l541 -284 552 290 c304 160 555 288 558 286 4
-5 -148 -909 -167 -992 -23 -100 6 84 79 510 43 248 77 451 76 453 -2 2 -848
-439 -1012 -529 -40 -21 -78 -39 -85 -39 -7 0 -256 128 -553 285 -297 156
-541 280 -543 276 -1 -5 11 -88 28 -185 17 -98 29 -183 27 -189 -3 -9 -19 80
-62 336 -11 71 -11 78 4 72 9 -3 259 -134 557 -290z m1619 -297 c-53 -310 -99
-572 -101 -584 -4 -17 86 -110 481 -495 267 -260 481 -475 475 -477 -6 -2
-135 117 -286 265 -152 147 -368 358 -481 468 l-205 200 103 603 c57 332 105
599 107 594 2 -6 -40 -264 -93 -574z m-1600 200 c209 -110 412 -217 450 -238
l71 -38 509 268 c281 148 511 264 513 259 2 -5 -11 -98 -29 -206 -18 -108 -34
-192 -36 -186 -2 6 10 91 26 189 17 98 29 179 28 180 -1 1 -227 -117 -502
-262 -275 -145 -503 -264 -507 -264 -4 0 -231 117 -503 261 -273 143 -499 258
-502 255 -3 -3 2 -53 11 -112 10 -58 16 -108 13 -110 -2 -2 -12 44 -21 103
-10 60 -20 121 -23 136 l-6 29 64 -32 c35 -18 235 -123 444 -232z m-700 -41
c25 -148 44 -274 43 -279 -4 -11 -100 538 -98 557 3 22 11 -19 55 -278z m-25
-223 c38 -226 70 -420 70 -431 0 -20 -133 -154 -782 -787 -208 -202 -383 -366
-389 -364 -6 2 252 260 573 573 320 313 584 574 586 580 1 6 -31 209 -73 450
-41 242 -75 446 -74 455 2 25 14 -43 89 -476z m1246 -94 c6 0 220 110 475 244
255 134 465 243 466 242 1 -1 -7 -59 -19 -129 -12 -70 -23 -125 -26 -123 -2 3
4 50 13 106 9 56 15 103 12 106 -2 2 -210 -104 -462 -236 l-457 -241 -460 241
c-253 133 -461 240 -463 238 -2 -1 21 -145 51 -318 30 -173 53 -322 51 -330
-2 -14 -118 652 -117 676 0 6 208 -98 463 -232 254 -134 467 -244 473 -244z
m-1071 186 c25 -147 44 -273 42 -279 -3 -10 -99 539 -97 558 3 21 11 -18 55
-279z m-75 66 c18 -106 30 -195 28 -198 -4 -4 -69 367 -68 390 0 31 12 -22 40
-192z m2344 -141 c-26 -154 -50 -279 -52 -276 -2 2 17 130 44 284 26 155 49
279 52 277 2 -3 -17 -131 -44 -285z m46 -101 l-59 -345 142 -140 c192 -190
885 -865 972 -948 41 -39 63 -66 54 -67 -13 0 -686 647 -1092 1049 l-89 88 64
369 c34 203 64 362 66 354 1 -8 -25 -170 -58 -360z m-1667 120 c230 -121 421
-220 424 -220 3 0 194 99 425 221 231 121 422 218 424 216 3 -2 -6 -64 -18
-138 -12 -74 -24 -127 -25 -119 -2 8 5 63 15 123 11 59 18 107 17 107 -2 0
-191 -99 -421 -219 l-418 -220 -131 70 c-713 376 -700 369 -706 346 -4 -17 -7
-14 -10 16 -3 20 -3 37 1 37 3 0 193 -99 423 -220z m-498 -74 c25 -147 44
-273 42 -279 -3 -10 -83 443 -93 528 -10 94 8 2 51 -249z m-35 -161 l68 -390
-277 -273 c-411 -406 -621 -606 -628 -598 -4 3 108 117 248 253 140 136 341
333 448 439 l194 191 -67 390 c-36 214 -65 396 -65 404 2 20 2 19 79 -416z
m127 338 c-3 -10 -5 -4 -5 12 0 17 2 24 5 18 2 -7 2 -21 0 -30z m1952 -187
c-18 -108 -34 -194 -37 -192 -2 3 11 93 29 200 18 108 34 194 37 192 2 -3 -11
-93 -29 -200z m-1473 -43 l352 -184 378 200 c415 219 399 214 375 116 l-10
-40 5 49 6 48 -74 -40 c-213 -116 -669 -352 -680 -352 -7 0 -176 86 -376 191
-200 105 -366 188 -369 185 -4 -3 13 -118 37 -256 23 -138 40 -253 38 -255 -2
-3 -24 109 -47 248 -24 138 -45 265 -48 281 l-6 28 34 -17 c19 -10 192 -100
385 -202z m1193 -104 c-29 -171 -55 -307 -57 -301 -2 6 20 143 47 306 28 162
51 301 51 307 0 7 3 10 6 6 3 -3 -18 -146 -47 -318z m-1590 -114 l68 -390 -31
-33 c-99 -107 -647 -633 -656 -630 -6 2 141 152 327 333 186 182 339 337 341
346 2 8 -27 186 -63 394 -36 208 -64 386 -64 394 2 22 2 25 78 -414z m1698
378 c-3 -10 -5 -4 -5 12 0 17 2 24 5 18 2 -7 2 -21 0 -30z m-2270 -50 c-3 -10
-5 -4 -5 12 0 17 2 24 5 18 2 -7 2 -21 0 -30z m2209 -313 l-56 -322 248 -241
c451 -439 576 -566 570 -573 -4 -3 -184 166 -400 376 -216 211 -402 391 -412
401 -18 17 -18 25 40 359 32 189 60 338 62 332 2 -6 -22 -155 -52 -332z
m-2166 93 c17 -106 30 -199 28 -207 -2 -8 -219 -224 -483 -481 -264 -257 -539
-526 -611 -597 -73 -72 -137 -129 -144 -126 -6 2 224 233 512 513 287 280 567
553 622 605 l98 97 -31 186 c-17 102 -31 191 -31 198 0 37 11 -15 40 -188z
m1276 -156 c9 0 333 166 591 305 l92 49 -6 -38 c-3 -21 -9 -54 -14 -73 -6 -27
-7 -24 -3 18 3 28 4 52 2 52 -3 0 -150 -76 -329 -170 -178 -93 -327 -170 -332
-170 -5 0 -155 77 -333 171 -179 94 -327 169 -329 167 -1 -1 10 -79 26 -173
16 -93 28 -177 26 -185 -2 -14 -68 360 -67 386 0 6 150 -67 333 -164 182 -96
337 -175 343 -175z m693 34 c-29 -171 -55 -309 -57 -306 -2 2 19 144 49 314
29 171 54 309 57 307 2 -3 -20 -144 -49 -315z m108 262 c-3 -10 -5 -4 -5 12 0
17 2 24 5 18 2 -7 2 -21 0 -30z m-1910 -30 c-3 -10 -5 -4 -5 12 0 17 2 24 5
18 2 -7 2 -21 0 -30z m-27 -180 c16 -99 30 -190 30 -200 0 -22 -1080 -1083
-1102 -1083 -14 0 197 211 746 746 l349 339 -32 187 c-28 171 -36 229 -26 203
3 -5 18 -92 35 -192z m1880 -124 l-50 -294 127 -125 c71 -69 226 -221 345
-338 119 -116 211 -212 203 -212 -11 0 -322 296 -604 575 l-83 83 53 312 c29
172 55 308 57 302 1 -5 -20 -142 -48 -303z m-1807 65 l34 -192 -514 -501
c-447 -435 -547 -529 -531 -493 2 4 181 180 398 392 217 211 449 437 514 501
l120 117 -32 184 c-18 101 -31 191 -31 199 2 22 6 2 42 -207z m767 36 c158
-82 292 -150 298 -150 6 0 140 68 298 151 157 83 288 148 290 146 3 -3 -20
-150 -52 -328 l-56 -324 242 -235 242 -236 -334 -48 c-183 -27 -334 -49 -335
-50 0 0 -67 -136 -148 -301 l-147 -300 -148 299 c-82 164 -150 299 -152 301
-2 2 -149 24 -328 50 -179 26 -326 48 -328 50 -3 3 353 354 428 423 l45 41
-56 330 c-31 182 -53 331 -51 331 3 0 134 -67 292 -150z m1571 15 c-18 -102
-18 -111 -3 -129 10 -10 188 -185 397 -390 209 -204 482 -471 608 -593 125
-123 221 -223 213 -223 -8 0 -292 271 -631 602 -552 538 -616 604 -612 627 3
14 13 76 23 136 10 61 20 103 21 95 2 -8 -6 -64 -16 -125z m-671 -190 l-51
-290 278 -272 c152 -150 270 -273 262 -273 -8 0 -136 118 -283 263 l-269 262
54 315 c30 173 55 308 56 300 2 -8 -19 -145 -47 -305z m-1595 99 c14 -84 25
-161 25 -173 0 -21 -98 -120 -699 -704 -226 -219 -281 -268 -269 -239 2 5 217
217 478 472 261 255 476 468 478 475 2 7 -9 80 -23 162 -23 138 -29 194 -20
168 3 -5 16 -78 30 -161z m2056 -18 l-20 -116 222 -218 c122 -120 356 -348
520 -507 164 -160 293 -291 286 -294 -6 -2 -61 46 -123 105 -61 60 -205 201
-321 314 -115 113 -297 290 -403 394 l-193 189 22 135 c13 75 24 131 26 125 2
-6 -5 -63 -16 -127z m65 8 l-16 -89 58 -56 c31 -31 257 -251 502 -489 571
-555 558 -542 538 -538 -17 3 -198 176 -846 810 l-264 257 18 107 c10 60 19
103 21 97 2 -6 -3 -51 -11 -99z m-1907 -127 l28 -167 -61 -57 c-34 -32 -200
-193 -369 -358 -169 -165 -315 -301 -325 -303 -18 -4 52 67 477 481 l264 257
-27 162 c-14 90 -26 168 -25 173 2 17 9 -15 38 -188z m-65 11 l23 -138 -409
-397 c-225 -219 -413 -399 -418 -401 -31 -11 12 36 203 221 116 113 302 293
411 399 l200 194 -22 134 c-12 74 -22 140 -21 145 2 16 8 -13 33 -157z m1767
35 c-6 -37 -14 -79 -17 -93 -4 -22 47 -76 447 -465 248 -242 446 -441 440
-443 -9 -3 -350 322 -824 788 l-79 77 17 107 c10 58 20 104 23 102 2 -3 -1
-36 -7 -73z m-1492 -153 l30 -165 -62 -61 c-310 -305 -477 -464 -489 -463 -7
0 111 121 262 269 l274 269 -27 163 c-15 90 -27 168 -26 173 2 16 7 -9 38
-185z m-65 8 l23 -138 -303 -295 c-166 -162 -308 -295 -316 -295 -7 1 126 137
296 304 l310 303 -22 134 c-12 74 -22 139 -21 144 2 16 8 -13 33 -157z m1406
15 l-11 -58 378 -372 c208 -205 371 -372 363 -372 -8 0 -181 163 -384 362
l-368 362 13 80 c7 44 14 74 16 68 2 -6 -1 -38 -7 -70z m-144 -95 l-6 -43 309
-300 c171 -165 306 -302 300 -304 -12 -4 -57 39 -387 362 l-234 228 7 49 c4
28 9 50 12 50 3 0 2 -19 -1 -42z"/>
<path d="M2193 6124 c-44 -22 -72 -70 -81 -141 -23 -181 64 -464 269 -878 54
-110 89 -186 77 -170 -156 209 -402 490 -524 597 -166 147 -269 192 -344 153
-45 -23 -63 -67 -62 -154 2 -265 242 -752 575 -1170 123 -153 376 -408 512
-515 55 -44 106 -84 113 -91 7 -6 -37 1 -98 17 -191 48 -315 62 -535 62 -222
0 -352 -15 -546 -64 -361 -90 -670 -273 -755 -447 -22 -43 -26 -63 -22 -108
18 -212 378 -288 1033 -219 37 4 0 -12 -140 -59 -464 -157 -675 -284 -675
-405 0 -100 154 -152 450 -152 511 0 1086 168 1497 438 l90 60 -53 -105 c-151
-297 -220 -703 -184 -1074 54 -545 279 -879 466 -693 93 94 166 332 209 681
17 132 25 165 25 97 0 -69 40 -315 71 -444 34 -139 89 -266 138 -322 17 -20
52 -44 76 -54 42 -16 48 -16 89 0 141 54 262 325 306 686 13 110 13 402 0 510
-28 225 -87 430 -175 605 -29 58 -51 105 -49 105 2 0 45 -28 96 -61 109 -72
352 -192 491 -244 351 -129 704 -191 1042 -182 214 5 297 23 359 78 46 40 52
70 25 126 -50 103 -249 209 -659 350 -138 47 -172 62 -135 58 520 -56 854 -18
978 110 197 203 -184 539 -763 675 -217 50 -474 69 -690 51 -140 -12 -343 -49
-419 -76 -24 -8 -45 -14 -47 -12 -1 1 39 35 89 74 342 266 671 654 891 1049
180 324 272 639 222 758 -62 148 -241 76 -514 -208 -104 -108 -252 -282 -356
-419 -32 -42 -60 -77 -62 -77 -2 0 29 64 69 143 293 576 371 952 218 1054
-103 69 -302 -19 -510 -226 -123 -122 -202 -219 -319 -394 -95 -144 -232 -409
-296 -575 -71 -182 -166 -538 -166 -621 0 -45 -8 -17 -40 138 -87 428 -281
859 -541 1208 -96 129 -304 336 -401 400 -132 88 -240 114 -315 77z m212 -79
c39 -20 84 -47 100 -61 l30 -26 -45 25 c-64 36 -160 61 -204 53 -43 -8 -92
-48 -111 -90 l-13 -31 -1 32 c-1 47 27 111 58 128 38 22 104 11 186 -30z
m2355 18 c24 -22 33 -41 39 -83 5 -30 8 -56 6 -58 -1 -2 -11 14 -22 34 -31 60
-64 79 -137 79 -52 0 -76 -7 -134 -36 -86 -42 -75 -23 16 28 127 71 183 80
232 36z m-2312 -123 c44 -22 86 -47 93 -56 9 -11 -4 -8 -39 10 -129 66 -235
47 -277 -49 l-13 -30 -1 33 c-1 39 23 102 46 120 34 25 106 14 191 -28z m2279
1 c15 -22 23 -49 23 -75 l0 -41 -17 33 c-42 86 -146 98 -278 32 -55 -27 -58
-28 -30 -5 16 13 61 40 99 60 59 31 78 35 125 33 50 -3 57 -6 78 -37z m-2240
-100 c32 -17 72 -42 88 -56 27 -22 23 -21 -33 7 -120 61 -216 46 -261 -39 -18
-34 -20 -36 -21 -13 0 42 20 99 43 121 31 29 107 21 184 -20z m2164 29 c27
-15 49 -63 49 -107 l-1 -38 -19 36 c-41 78 -140 90 -259 30 -33 -17 -61 -29
-61 -27 0 8 124 82 165 99 46 19 98 21 126 7z m-2126 -131 c33 -16 74 -41 90
-55 28 -23 25 -23 -32 6 -118 59 -204 47 -250 -35 -20 -36 -23 -37 -23 -15 0
47 21 99 48 120 35 28 83 22 167 -21z m2069 31 c32 -12 56 -58 56 -107 l0 -38
-19 30 c-34 56 -58 70 -121 70 -44 -1 -72 -8 -121 -32 -35 -18 -65 -31 -66
-29 -6 5 107 72 157 93 62 25 78 27 114 13z m-2026 -135 c85 -43 120 -77 41
-40 -65 30 -147 34 -185 9 -14 -10 -34 -33 -44 -53 -18 -33 -19 -34 -20 -11 0
37 17 90 36 111 28 31 90 25 172 -16z m1987 29 c23 -9 45 -58 45 -101 l0 -38
-20 32 c-10 18 -31 39 -45 49 -37 24 -128 15 -197 -19 -52 -27 -52 -27 -24 -3
77 64 187 100 241 80z m-2838 -43 c16 -9 14 -10 -12 -11 -63 0 -104 -57 -106
-147 -1 -39 -2 -43 -9 -23 -12 36 -12 134 0 165 16 43 69 50 127 16z m3652 0
c15 -28 19 -84 11 -141 -4 -33 -8 -43 -9 -25 -4 92 -46 151 -109 157 l-37 4
50 15 c55 18 81 15 94 -10z m-2773 -81 c32 -16 73 -41 89 -55 l30 -25 -53 26
c-101 51 -193 40 -228 -27 -20 -40 -28 -31 -19 22 15 90 78 111 181 59z m1914
20 c21 -11 40 -60 40 -103 l0 -30 -23 34 c-12 18 -34 40 -47 47 -36 19 -117 9
-181 -23 -44 -21 -49 -22 -29 -5 42 34 161 90 192 90 16 0 38 -4 48 -10z
m-2745 -14 c43 -18 44 -23 4 -24 -56 -1 -98 -61 -100 -144 l-1 -43 -10 45
c-19 95 6 180 54 180 10 0 34 -7 53 -14z m3525 -6 c16 -16 20 -33 19 -92 -1
-88 -17 -142 -18 -60 -1 29 -8 67 -17 83 -15 31 -76 65 -94 54 -6 -4 -10 -3
-10 0 0 8 61 34 83 35 9 0 26 -9 37 -20z m-3450 -85 c20 -11 21 -14 7 -15 -56
-1 -90 -42 -105 -130 l-8 -45 -7 61 c-7 64 4 122 25 136 20 12 60 9 88 -7z
m810 -25 c30 -15 66 -37 80 -49 23 -20 21 -20 -27 3 -101 50 -185 40 -219 -25
-21 -41 -27 -36 -19 14 17 103 64 118 185 57z m1815 17 c21 -17 28 -35 32 -72
l5 -50 -21 33 c-31 49 -82 67 -146 53 -28 -6 -65 -21 -84 -32 -54 -33 -45 -16
11 21 55 35 131 69 160 70 9 0 29 -10 43 -23z m762 -7 c14 -27 16 -121 3 -160
-6 -20 -8 -15 -9 26 -1 68 -32 114 -86 130 l-40 11 30 11 c48 18 88 11 102
-18z m-3320 -71 c29 -12 28 -13 -20 -23 -39 -9 -67 -59 -68 -121 0 -37 -3 -45
-9 -30 -12 28 -12 143 0 166 12 22 53 25 97 8z m3243 -4 c17 -21 23 -92 12
-140 l-10 -40 -1 33 c-2 72 -47 132 -101 132 l-25 1 25 14 c33 19 84 19 100 0z
m-2464 -35 c32 -16 70 -39 84 -50 21 -17 17 -17 -30 5 -35 16 -73 25 -104 25
-44 0 -53 -4 -87 -39 l-37 -40 5 42 c12 95 62 111 169 57z m1739 10 c9 -10 19
-41 22 -67 l5 -48 -21 32 c-11 17 -29 37 -40 42 -34 18 -103 12 -161 -14 l-55
-25 29 24 c83 69 186 95 221 56z m-2457 -57 l37 -16 -35 -6 c-46 -8 -80 -57
-81 -120 -1 -38 -2 -42 -9 -21 -14 45 -11 134 6 158 18 26 33 27 82 5z m3100
8 c20 -12 29 -69 22 -131 -4 -32 -8 -42 -9 -25 -3 54 -37 114 -68 121 -15 3
-32 7 -38 9 -10 3 52 34 70 34 6 1 16 -3 23 -8z m-2352 -56 c27 -14 63 -36 79
-50 l30 -25 -44 21 c-24 12 -65 24 -92 27 -45 4 -51 2 -85 -32 -20 -20 -37
-36 -38 -36 -2 0 0 21 4 47 12 77 58 92 146 48z m1659 5 c9 -10 19 -41 22 -67
l5 -48 -20 31 c-38 59 -114 68 -205 23 l-42 -20 25 20 c40 33 141 81 170 81
15 0 35 -9 45 -20z m-2340 -42 l26 -12 -30 -12 c-38 -16 -71 -68 -72 -114 l-1
-35 -10 40 c-11 46 -5 109 12 130 15 18 40 19 75 3z m2975 -7 c12 -23 12 -128
0 -156 -7 -15 -9 -9 -9 25 -1 60 -30 106 -73 116 l-33 7 30 13 c43 19 73 17
85 -5z m-2240 -66 c25 -13 56 -33 70 -44 l25 -22 -44 22 c-26 12 -65 22 -94
22 -44 1 -53 -3 -78 -31 l-29 -32 0 38 c0 83 48 98 150 47z m1559 10 c7 -7 15
-35 18 -61 l5 -49 -20 31 c-37 57 -126 65 -200 17 -13 -8 -25 -13 -27 -11 -7
6 93 68 133 83 39 14 68 11 91 -10z m-2222 -26 l28 -12 -31 -8 c-37 -10 -59
-41 -70 -95 l-8 -39 -7 45 c-4 25 -3 62 2 83 11 41 32 47 86 26z m2833 -8 c11
-22 12 -103 1 -141 -6 -20 -9 -14 -13 29 -4 43 -11 60 -32 78 -15 13 -37 23
-49 23 -21 1 -21 1 3 15 36 21 77 19 90 -4z m-2163 -62 c33 -12 125 -70 120
-75 -2 -2 -21 5 -42 16 -59 30 -120 27 -156 -9 l-29 -29 0 35 c0 63 41 87 107
62z m1503 -4 c7 -8 15 -36 17 -63 l5 -47 -18 25 c-10 14 -25 30 -34 37 -23 19
-90 15 -140 -8 -60 -27 -34 0 40 40 60 33 111 39 130 16z m-2112 -11 l37 -16
-32 -9 c-43 -12 -63 -44 -64 -99 -1 -67 -17 -20 -18 52 -1 39 4 61 15 72 19
20 17 20 62 0z m2701 -15 c10 -19 12 -40 6 -84 l-8 -60 -8 44 c-10 52 -43 91
-77 91 -31 0 -22 11 21 27 40 14 49 12 66 -18z m-2634 -71 l25 -11 -30 -19
c-32 -19 -50 -52 -51 -96 0 -24 -1 -25 -9 -7 -12 28 -12 103 0 126 12 22 28
24 65 7z m598 -8 c23 -11 56 -31 72 -45 l30 -25 -49 21 c-61 26 -112 20 -143
-16 l-23 -26 0 33 c0 41 24 78 51 78 10 0 38 -9 62 -20z m1390 8 c9 -7 19 -33
23 -58 l7 -45 -37 33 c-43 38 -80 41 -146 12 l-45 -20 25 20 c33 27 120 70
140 70 9 0 24 -6 33 -12z m575 -21 c5 -17 6 -52 2 -77 l-7 -45 -7 37 c-9 41
-35 73 -67 83 l-22 7 24 14 c43 24 67 18 77 -19z m-2487 -68 c19 -10 18 -11
-13 -32 -24 -17 -36 -35 -44 -67 l-11 -45 -8 56 c-11 86 18 120 76 88z m2417
-51 c2 -32 -2 -66 -7 -75 -8 -15 -10 -11 -11 20 0 42 -35 87 -67 87 -14 1 -13
4 7 15 14 8 36 14 50 12 23 -2 25 -6 28 -59z m-1821 12 c52 -30 89 -64 42 -39
-64 34 -128 29 -161 -14 l-18 -22 0 33 c0 79 48 93 137 42z m1282 -1 c12 -35
14 -69 5 -69 -3 0 -15 11 -25 24 -32 41 -59 41 -164 1 -29 -11 44 45 80 61 17
7 44 13 62 14 26 0 33 -5 42 -31z m-1796 -56 c5 -3 -4 -12 -21 -19 -24 -10
-34 -23 -43 -56 l-13 -43 -6 45 c-7 48 -3 81 13 92 9 6 46 -4 70 -19z m2255
15 c13 -13 14 -79 2 -118 -8 -24 -8 -24 -9 6 -1 38 -33 81 -64 87 -20 3 -18 5
13 20 43 20 43 20 58 5z m-1687 -69 c53 -34 61 -49 13 -24 -47 24 -101 19
-129 -11 l-25 -27 0 32 c0 18 5 42 11 53 15 28 65 19 130 -23z m1167 28 c14
-17 25 -64 18 -76 -4 -5 -17 1 -31 15 -28 28 -69 31 -121 9 -49 -20 -32 0 29
35 56 32 88 37 105 17z m-1694 -47 c28 -10 35 -30 12 -30 -22 0 -46 -40 -46
-75 0 -23 -3 -27 -10 -15 -11 17 -14 113 -3 123 9 9 17 9 47 -3z m2146 -11 c8
-13 9 -39 4 -72 -7 -51 -8 -51 -15 -19 -7 37 -35 72 -56 72 -21 0 -15 16 10
28 33 16 45 14 57 -9z m-1603 -59 c64 -37 76 -54 24 -33 -46 18 -82 12 -111
-19 l-20 -22 0 33 c0 41 16 71 38 71 9 0 40 -14 69 -30z m1101 18 c10 -13 15
-39 13 -70 -1 -14 -5 -13 -26 7 -28 29 -60 31 -113 10 l-37 -15 25 20 c30 23
100 60 116 60 6 0 16 -6 22 -12z m-1558 -43 c14 -8 19 -14 12 -15 -23 0 -62
-48 -63 -77 l-1 -28 -8 25 c-10 32 -12 95 -3 103 10 11 36 8 63 -8z m1990 -46
c0 -62 -13 -73 -23 -19 -4 19 -16 34 -32 42 l-26 12 23 13 c48 26 58 18 58
-48z m-1477 -39 c46 -29 66 -51 28 -30 -34 18 -93 12 -118 -12 l-23 -21 0 30
c0 17 3 38 6 47 10 25 55 19 107 -14z m1005 -20 c3 -44 3 -44 -13 -22 -18 25
-80 31 -118 11 -22 -12 -22 -12 -4 9 26 28 77 52 107 50 22 -3 25 -8 28 -48z
m-1457 19 c20 -10 19 -11 -5 -30 -14 -11 -30 -35 -34 -52 -9 -31 -9 -31 -16
20 -11 72 5 89 55 62z m1859 -36 c0 -27 -5 -55 -10 -63 -8 -12 -10 -9 -10 13
0 28 -30 67 -52 67 -23 1 25 30 49 30 21 0 23 -5 23 -47z m-1781 -58 c11 -11
10 -14 -8 -20 -14 -4 -24 -18 -28 -36 -9 -48 -23 -33 -23 27 0 53 1 55 23 49
12 -4 28 -13 36 -20z m432 -21 c181 -133 359 -501 359 -744 0 -63 7 -80 35
-80 21 0 23 5 29 90 18 238 132 501 288 665 71 76 144 123 171 112 25 -10 22
-85 -8 -174 -33 -98 -134 -296 -228 -448 -67 -107 -73 -121 -58 -132 9 -7 19
-13 23 -13 4 0 31 35 59 78 192 284 390 512 446 512 29 0 9 -99 -40 -203 -108
-228 -295 -439 -489 -551 -46 -27 -47 -28 -32 -51 l16 -24 37 18 c20 11 70 30
111 42 65 21 95 24 225 24 166 0 230 -13 344 -67 70 -33 136 -87 144 -119 8
-29 -26 -55 -90 -68 -103 -20 -263 -9 -480 35 -67 13 -127 24 -132 24 -5 0
-11 -11 -13 -25 -6 -28 -22 -22 187 -74 204 -51 370 -113 425 -159 l25 -20
-30 -12 c-42 -16 -205 -14 -303 5 -174 33 -338 104 -451 196 -50 40 -65 48
-77 38 -20 -16 -18 -26 16 -69 86 -109 124 -253 117 -445 -5 -138 -21 -208
-60 -266 -35 -52 -53 -49 -82 13 -33 71 -54 210 -62 401 -6 155 -6 157 -29
157 -29 0 -31 -14 -38 -215 -6 -168 -25 -277 -58 -344 -32 -64 -55 -62 -91 9
-94 189 -68 490 58 675 43 62 43 63 24 81 -19 17 -21 16 -57 -18 -137 -132
-410 -228 -649 -229 -159 -1 -178 23 -64 81 102 51 182 76 514 161 37 10 44
22 28 47 -6 11 -33 8 -140 -13 -73 -14 -189 -31 -257 -37 -184 -17 -314 8
-314 62 0 50 139 139 275 176 155 41 380 26 526 -36 l67 -28 10 23 c10 21 5
26 -71 76 -105 67 -275 238 -349 349 -31 47 -75 123 -97 170 -41 84 -71 193
-58 206 37 38 251 -196 442 -483 37 -57 71 -103 75 -103 3 0 14 6 24 13 16 12
12 23 -63 144 -169 276 -270 519 -246 594 10 29 53 20 116 -27z m1275 31 c4
-8 3 -37 -1 -63 l-8 -47 -9 32 c-4 18 -18 39 -30 47 -23 17 -23 17 7 34 27 15
35 15 41 -3z m-1652 -87 l26 -11 -25 -23 c-14 -13 -25 -33 -25 -46 0 -19 -2
-20 -10 -8 -13 19 -13 100 0 100 5 0 20 -5 34 -12z m1581 2 c4 -6 4 -29 0 -51
l-7 -41 -18 30 c-10 16 -24 32 -32 35 -10 3 -8 9 7 21 23 18 41 20 50 6z
m1741 -924 c76 -77 104 -125 104 -179 0 -41 -33 -91 -78 -119 l-34 -21 32 45
c62 88 37 193 -73 303 -36 36 -55 59 -43 53 11 -6 53 -43 92 -82z m-5059 27
c-118 -118 -139 -231 -59 -317 l27 -28 -31 15 c-38 19 -82 69 -90 102 -14 58
50 164 144 240 31 24 59 45 61 45 3 0 -21 -26 -52 -57z m101 3 c-116 -114
-138 -227 -60 -308 32 -35 23 -36 -27 -2 -22 14 -47 42 -56 61 -15 31 -16 42
-5 77 18 60 63 119 133 176 34 27 64 50 66 50 3 0 -20 -24 -51 -54z m97 -2
c-105 -103 -128 -198 -71 -284 l26 -39 -34 20 c-110 65 -86 182 63 305 36 30
67 54 69 54 2 0 -22 -25 -53 -56z m97 -2 c-107 -104 -127 -213 -54 -296 17
-19 17 -19 -17 0 -111 63 -93 175 49 293 33 28 63 51 66 51 3 0 -17 -22 -44
-48z m4497 -57 c46 -49 71 -99 71 -139 0 -30 -42 -81 -84 -103 l-31 -16 21 24
c33 37 44 64 44 109 0 53 -30 110 -94 179 -49 53 -50 54 -10 24 22 -18 59 -53
83 -78z m100 0 c75 -81 90 -151 45 -205 -15 -17 -40 -38 -58 -47 l-31 -16 21
24 c33 37 44 64 44 111 -1 59 -30 118 -92 185 -50 54 -51 55 -12 26 22 -18 59
-53 83 -78z m94 5 c105 -113 102 -198 -8 -266 l-30 -18 21 25 c34 39 44 65 44
116 -1 64 -28 122 -92 190 -39 41 -44 51 -22 35 17 -12 57 -49 87 -82z m-4589
56 c-42 -36 -88 -111 -98 -162 -8 -34 12 -94 42 -128 17 -18 16 -18 -15 -3
-110 57 -92 173 45 284 62 51 83 58 26 9z m4193 -58 c66 -71 84 -123 57 -168
-11 -17 -35 -41 -54 -53 l-35 -22 24 33 c29 41 37 98 21 146 -6 20 -37 65 -68
98 -38 41 -47 55 -27 41 17 -11 53 -45 82 -75z m100 0 c65 -70 85 -125 60
-171 -10 -18 -33 -42 -52 -55 -40 -25 -45 -19 -14 15 14 14 24 40 27 71 5 61
-20 116 -87 186 -35 37 -39 44 -16 29 17 -12 53 -45 82 -75z m-4203 50 c-97
-103 -115 -198 -52 -266 l23 -25 -32 17 c-43 21 -73 63 -73 99 0 43 41 108
102 161 62 54 74 59 32 14z m86 -15 c-24 -27 -49 -62 -56 -80 -21 -49 -18
-116 7 -147 30 -38 3 -32 -37 8 -40 40 -43 69 -14 125 16 31 123 141 138 141
2 0 -15 -21 -38 -47z m102 3 c-22 -24 -47 -58 -56 -74 -23 -44 -21 -113 4
-145 29 -36 25 -42 -12 -16 -64 45 -72 73 -38 138 16 32 123 141 138 141 3 0
-14 -20 -36 -44z m3700 -19 c102 -98 107 -176 14 -224 l-29 -15 21 27 c51 64
37 136 -41 222 -59 64 -36 57 35 -10z m105 -6 c29 -29 58 -69 68 -95 17 -43
17 -46 -1 -76 -11 -17 -35 -41 -54 -53 l-35 -22 23 32 c51 72 38 142 -41 230
-62 67 -33 56 40 -16z m-3710 20 c-70 -78 -85 -146 -47 -209 l21 -33 -32 18
c-82 47 -77 107 16 200 70 70 98 86 42 24z m100 0 c-70 -77 -84 -138 -47 -199
l20 -33 -30 16 c-82 43 -75 110 21 199 70 65 86 73 36 17z m3292 0 c90 -68
115 -149 60 -195 -42 -36 -50 -33 -28 12 30 57 12 116 -58 186 -40 41 -31 40
26 -3z m103 -4 c90 -72 114 -154 57 -201 -42 -36 -50 -33 -28 11 10 21 19 45
19 55 0 35 -31 93 -73 137 -45 47 -35 46 25 -2z m-3299 1 c-64 -68 -78 -128
-43 -186 l20 -33 -30 16 c-78 40 -73 101 15 184 60 56 87 70 38 19z m100 0
c-60 -64 -76 -119 -49 -170 17 -32 10 -35 -22 -12 -58 40 -46 91 38 167 60 54
78 62 33 15z m3020 -22 c79 -75 89 -139 27 -171 -39 -20 -47 -19 -25 5 37 41
17 127 -45 189 -54 54 -15 34 43 -23z m-2937 2 c-44 -51 -55 -101 -33 -140 19
-33 10 -36 -27 -7 -43 34 -36 72 27 136 64 63 83 70 33 11z m101 3 c-44 -48
-56 -100 -33 -136 19 -29 7 -32 -29 -9 -46 30 -24 97 53 157 48 37 51 34 9
-12z m2584 -55 c26 -42 24 -61 -7 -85 -33 -26 -48 -27 -34 -2 21 40 12 87 -26
137 l-37 48 43 -34 c23 -18 51 -47 61 -64z m100 0 c26 -43 24 -71 -7 -95 -34
-27 -48 -27 -33 0 19 37 5 103 -32 151 l-34 43 44 -34 c24 -19 52 -48 62 -65z
m43 60 c80 -65 96 -134 40 -171 -27 -18 -46 -13 -26 7 32 32 -6 159 -56 187
-9 6 -13 11 -8 11 5 0 28 -15 50 -34z m-2626 -3 c-38 -40 -51 -80 -38 -116 13
-38 7 -44 -25 -23 -43 28 -28 80 40 139 40 35 56 34 23 0z m99 -1 c-33 -35
-47 -79 -35 -111 11 -32 4 -37 -27 -17 -44 29 -28 78 44 131 45 33 51 32 18
-3z m2169 -34 c36 -39 38 -63 8 -87 -36 -28 -44 -26 -32 7 14 37 5 72 -29 113
l-28 34 30 -22 c17 -11 40 -32 51 -45z m103 -4 c35 -45 37 -65 7 -91 -34 -29
-51 -30 -36 -4 18 35 11 77 -21 121 l-31 43 30 -22 c17 -12 40 -33 51 -47z
m-2216 -349 c17 -24 17 -25 0 -25 -28 0 -47 16 -40 34 9 22 19 20 40 -9z
m2037 10 c15 -18 13 -21 -22 -30 -26 -7 -27 -6 -15 19 14 30 20 32 37 11z
m-2109 -65 c7 0 10 -3 6 -6 -7 -7 -77 15 -77 23 0 4 8 15 17 25 16 18 17 17
29 -12 7 -16 19 -30 25 -30z m2204 11 c-6 -4 -23 -11 -38 -15 l-28 -7 22 31
c21 27 25 29 38 15 10 -9 12 -18 6 -24z m-2302 -39 l21 -22 -35 11 c-49 17
-55 26 -33 50 18 20 19 20 22 3 2 -11 13 -29 25 -42z m2397 22 c0 -15 -30 -34
-54 -34 -13 0 -12 4 4 20 11 11 20 27 20 36 0 14 3 14 15 4 8 -7 15 -18 15
-26z m-2483 -64 c15 -9 13 -10 -12 -5 -46 10 -60 27 -44 56 l12 24 14 -32 c7
-17 21 -37 30 -43z m2583 28 c0 -10 -70 -42 -76 -35 -2 2 5 12 16 22 11 10 20
27 20 38 0 19 1 20 20 2 11 -10 20 -22 20 -27z m-2683 -50 c20 -23 3 -24 -38
-3 -29 16 -30 22 -5 53 8 11 12 9 18 -9 5 -13 16 -32 25 -41z m2763 8 c-8 -8
-28 -18 -44 -22 l-29 -7 22 22 c11 11 21 31 21 43 l0 22 22 -22 c20 -19 21
-24 8 -36z m-2849 -47 c33 -17 15 -22 -24 -6 -45 19 -53 34 -31 58 18 21 19
20 27 -10 4 -17 17 -36 28 -42z m2937 59 c23 -23 13 -48 -23 -64 -51 -21 -57
-17 -23 16 17 18 28 37 24 45 -7 18 5 20 22 3z m-3058 -42 c0 -15 11 -33 26
-45 31 -24 18 -27 -31 -7 -37 16 -41 26 -25 57 15 26 30 24 30 -5z m3153 -37
c-10 -10 -31 -21 -48 -25 l-30 -7 28 26 c15 14 27 36 27 49 l1 23 20 -24 c19
-24 19 -25 2 -42z m-3248 21 c-8 -13 21 -66 41 -74 9 -4 14 -9 12 -12 -8 -7
-71 20 -85 38 -10 11 -9 19 3 36 15 21 42 32 29 12z m3355 -36 c0 -14 -35 -35
-80 -49 -23 -7 -22 -6 8 19 21 18 32 37 32 53 0 25 0 26 20 8 11 -10 20 -24
20 -31z m-3414 -63 c31 -24 18 -27 -30 -7 -45 19 -51 32 -30 64 l18 27 8 -32
c5 -17 20 -41 34 -52z m3494 60 c5 -11 10 -24 10 -30 0 -13 -36 -36 -70 -46
l-25 -8 28 26 c16 15 27 37 27 52 0 30 15 33 30 6z m-3615 -57 c3 -12 20 -32
37 -44 29 -18 30 -20 8 -15 -79 22 -101 49 -74 90 17 25 19 27 22 9 1 -10 5
-29 7 -40z m3718 -10 c-6 -17 -33 -32 -74 -44 l-29 -9 35 33 c21 20 35 43 35
57 l1 24 19 -23 c10 -13 16 -30 13 -38z m-3815 4 c0 -24 10 -41 34 -62 30 -26
31 -27 8 -21 -77 23 -95 49 -64 93 20 29 21 28 22 -10z m3909 -31 c-5 -17 -50
-46 -82 -53 l-30 -6 25 18 c36 26 49 46 50 74 l1 25 20 -24 c11 -13 18 -29 16
-34z m-4003 18 c-10 -25 17 -75 48 -91 42 -22 28 -28 -18 -9 -39 16 -74 42
-74 55 0 8 39 60 45 60 3 0 2 -7 -1 -15z m4096 -46 c0 -22 -18 -36 -69 -54
l-42 -14 36 33 c26 25 35 42 35 67 l0 34 20 -25 c11 -14 20 -32 20 -41z
m-4176 -48 c5 -7 22 -21 40 -32 38 -23 21 -25 -34 -3 -54 22 -66 45 -43 85
l18 30 6 -33 c3 -19 9 -40 13 -47z m4266 19 c0 -22 -26 -44 -69 -59 -42 -14
-50 -9 -16 9 29 16 57 71 49 97 -4 14 -1 13 15 -6 12 -13 21 -31 21 -41z
m-4327 -75 l41 -36 -44 16 c-78 28 -96 58 -62 105 l17 25 3 -37 c3 -30 12 -45
45 -73z m4418 64 c14 -26 1 -48 -42 -69 -55 -29 -69 -25 -29 8 26 22 34 36 34
64 1 29 4 34 14 25 7 -6 17 -18 23 -28z m-4555 -5 c-10 -25 21 -82 56 -105 28
-17 29 -19 8 -14 -87 23 -117 62 -86 111 18 27 31 32 22 8z m4644 -24 c10 -24
10 -33 -1 -46 -14 -17 -51 -37 -88 -49 -20 -6 -17 0 17 32 32 31 42 47 42 72
0 38 12 34 30 -9z m-4738 -20 c-3 -25 3 -37 36 -70 44 -45 40 -50 -18 -20 -54
28 -66 52 -43 90 22 38 31 38 25 0z m4838 -27 c0 -28 -20 -51 -60 -67 -55 -22
-72 -20 -33 4 38 23 53 48 53 92 l1 33 19 -24 c11 -13 20 -30 20 -38z m-2576
-157 c28 -1 29 -13 4 -30 -20 -12 -43 5 -65 48 l-16 31 26 -24 c14 -12 37 -24
51 -25z m330 4 c-24 -39 -43 -45 -68 -19 -21 21 -21 21 -1 15 12 -3 33 2 50
13 17 11 31 20 33 20 2 1 -5 -12 -14 -29z m-343 -90 c16 0 29 -4 29 -8 0 -12
-23 -32 -37 -32 -14 0 -49 35 -65 64 -10 18 -8 17 17 -2 15 -12 41 -22 56 -22z
m355 -5 c-31 -40 -45 -43 -71 -15 -18 20 -17 20 17 20 22 0 41 7 53 20 30 33
30 14 1 -25z m-368 -85 c38 0 42 -16 7 -32 -29 -13 -48 0 -79 54 l-19 33 30
-27 c19 -19 40 -28 61 -28z m412 35 c0 -11 -63 -75 -74 -75 -7 0 -21 9 -31 20
-18 20 -17 20 17 20 21 0 46 8 59 20 26 21 29 23 29 15z m-424 -125 c41 0 44
-16 8 -32 -24 -11 -29 -9 -60 25 -40 43 -46 67 -8 32 18 -16 39 -25 60 -25z
m426 18 c-11 -18 -32 -40 -46 -48 -24 -14 -27 -13 -48 8 l-22 22 36 0 c25 0
46 8 65 25 37 32 39 31 15 -7z m21 -79 c-10 -18 -30 -41 -45 -52 -26 -20 -27
-20 -55 -1 l-28 19 30 3 c45 4 84 22 96 43 5 11 12 19 15 19 3 0 -2 -14 -13
-31z m-455 -29 l36 0 -22 -22 c-21 -21 -24 -22 -48 -8 -14 8 -35 31 -47 50
l-22 35 33 -27 c23 -19 45 -28 70 -28z m-11 -90 c35 0 36 0 18 -20 -26 -29
-43 -25 -87 20 -48 51 -50 73 -3 31 26 -22 46 -31 72 -31z m478 22 c-14 -22
-37 -45 -50 -52 -21 -11 -28 -10 -52 6 l-28 19 48 5 c33 4 56 14 75 33 36 36
37 34 7 -11z m-535 -102 c16 -7 43 -10 60 -8 24 4 27 2 18 -9 -36 -43 -78 -34
-123 27 -29 40 -34 65 -5 28 10 -14 33 -31 50 -38z m563 29 c-20 -35 -68 -79
-87 -79 -14 0 -56 28 -56 38 0 4 18 6 39 4 34 -3 45 1 78 32 21 19 39 36 41
36 2 0 -5 -14 -15 -31z m26 -71 c-15 -29 -59 -77 -82 -89 -12 -7 -26 -5 -47 8
-39 23 -38 30 4 25 40 -5 90 19 112 53 20 31 29 33 13 3z m-550 -55 l46 5 -29
-24 c-42 -37 -87 -16 -130 58 l-20 33 43 -39 c40 -35 47 -38 90 -33z m-53 -89
c13 -4 39 -3 57 0 32 6 32 6 12 -13 -36 -35 -60 -35 -100 0 -20 18 -43 45 -51
62 -16 29 -15 29 20 -7 20 -19 48 -39 62 -42z m606 34 c-19 -31 -75 -78 -93
-78 -4 0 -20 10 -35 23 l-27 23 35 -4 c39 -4 82 14 112 47 28 31 31 26 8 -11z
m-617 -124 c14 -3 39 -4 56 0 35 7 31 -7 -9 -28 -40 -20 -82 0 -123 61 l-33
48 42 -37 c23 -21 53 -40 67 -44z m641 49 c-23 -44 -72 -85 -101 -85 -15 0
-36 9 -48 20 l-21 21 36 -5 c43 -7 100 17 123 52 21 33 29 30 11 -3z m-652
-139 c14 -3 37 -3 51 0 37 9 31 -12 -7 -29 -27 -11 -37 -11 -58 0 -29 15 -59
47 -86 90 -17 27 -14 26 28 -12 26 -23 58 -45 72 -49z m658 33 c-49 -70 -109
-89 -147 -47 -16 17 -15 18 23 13 46 -6 89 13 124 55 34 43 34 30 0 -21z
m-667 -123 c22 -4 47 -2 63 6 l27 12 -24 -26 c-49 -52 -118 -23 -175 74 -16
28 -13 26 27 -14 30 -30 57 -47 82 -52z m698 55 c-46 -80 -116 -109 -164 -70
l-24 20 41 -6 c47 -6 85 10 128 56 37 39 42 39 19 0z m20 -80 c-10 -17 -35
-46 -56 -65 -43 -39 -83 -44 -118 -14 l-24 20 41 -6 c50 -7 112 21 146 66 28
39 34 38 11 -1z m-728 -65 c22 -4 47 -2 63 6 l27 12 -24 -26 c-48 -51 -125
-22 -175 66 l-20 33 46 -42 c29 -26 60 -44 83 -49z m-27 -85 c30 -9 49 -9 74
0 l33 11 -28 -25 c-41 -36 -79 -33 -128 12 -22 20 -47 49 -55 65 -14 26 -11
25 25 -11 22 -22 58 -45 79 -52z m765 50 c-26 -46 -83 -89 -116 -89 -29 0 -77
26 -77 41 0 5 11 4 24 -2 38 -18 90 -2 138 41 23 21 44 39 46 40 2 0 -5 -14
-15 -31z m-788 -135 c42 -16 53 -16 100 1 15 5 14 1 -8 -19 -51 -47 -112 -28
-171 53 -46 62 -46 72 0 22 19 -22 55 -47 79 -57z m806 52 c-63 -91 -128 -119
-178 -77 -32 27 -29 30 15 18 33 -9 46 -7 85 12 25 12 57 38 72 57 37 49 42
42 6 -10z m43 -48 c-73 -125 -150 -167 -211 -113 l-28 24 37 -11 c53 -16 117
10 166 68 38 44 49 54 36 32z m-852 -98 c28 -8 49 -8 71 -1 40 15 44 8 11 -18
-16 -12 -41 -21 -62 -21 -30 0 -44 8 -83 49 -26 27 -53 60 -60 73 -7 13 8 3
35 -24 30 -30 62 -52 88 -58z"/>
<path d="M8086 5920 c-38 -12 -64 -37 -89 -85 -16 -32 -20 -58 -20 -130 1
-187 88 -445 280 -829 47 -94 81 -166 75 -161 -5 6 -56 69 -113 140 -331 419
-564 625 -707 625 -61 0 -94 -29 -111 -97 -29 -114 40 -363 173 -626 230 -453
586 -881 991 -1191 36 -28 43 -37 25 -32 -238 63 -402 86 -623 86 -186 0 -292
-10 -463 -45 -472 -95 -864 -350 -864 -560 0 -123 105 -200 330 -241 108 -20
456 -21 625 -1 66 8 121 13 123 11 2 -1 -56 -21 -130 -44 -148 -47 -381 -136
-473 -182 -347 -174 -340 -344 15 -388 260 -31 645 17 1010 127 243 73 543
214 701 329 26 19 49 34 52 34 4 0 -9 -26 -28 -57 -73 -124 -150 -350 -187
-553 -31 -167 -31 -553 0 -720 28 -155 65 -279 112 -375 46 -96 87 -150 143
-188 35 -24 50 -28 88 -24 60 5 102 36 149 108 68 105 135 358 161 609 7 63
15 118 19 122 3 4 11 -45 18 -110 23 -217 83 -464 139 -577 74 -147 164 -190
265 -126 160 102 278 492 278 921 0 329 -66 627 -194 875 -22 44 -42 84 -44
88 -2 4 38 -20 90 -54 305 -201 727 -350 1173 -415 168 -25 492 -25 590 -1 77
20 149 57 165 87 17 32 11 85 -13 121 -67 100 -319 226 -690 344 -81 26 -146
49 -145 50 2 1 34 -1 73 -6 157 -20 403 -28 530 -19 238 17 378 64 442 148 28
38 33 51 33 101 0 79 -34 144 -118 223 -179 168 -465 294 -820 359 -156 29
-496 37 -657 15 -102 -14 -260 -46 -355 -72 -16 -5 -4 9 35 38 202 154 421
369 592 583 421 526 675 1154 528 1301 -19 19 -35 24 -72 24 -143 -1 -361
-189 -681 -589 -65 -80 -127 -159 -139 -176 -13 -16 15 44 60 135 218 434 318
751 289 918 -11 68 -30 102 -73 134 -95 71 -283 -10 -497 -216 -379 -366 -675
-943 -782 -1526 -10 -52 -20 -88 -22 -80 -3 8 -15 68 -27 132 -49 252 -129
485 -261 754 -213 432 -517 793 -775 919 -75 36 -152 50 -199 35z m186 -88
c35 -18 77 -44 93 -58 27 -22 23 -21 -35 8 -49 24 -81 33 -130 36 -81 4 -122
-18 -150 -81 l-20 -42 0 37 c0 46 15 86 43 116 32 34 113 27 199 -16z m2358
18 c27 -27 40 -63 40 -108 l-1 -37 -13 30 c-7 17 -26 41 -41 55 -24 22 -35 25
-103 25 -69 0 -84 -4 -144 -36 -38 -20 -68 -35 -68 -33 0 8 136 91 175 107 58
23 130 22 155 -3z m-2312 -125 c37 -19 81 -46 97 -59 24 -20 16 -17 -43 11
-132 66 -224 53 -269 -37 l-23 -44 0 37 c0 49 22 100 51 121 35 25 105 14 187
-29z m2246 34 c31 -15 56 -65 56 -116 l0 -38 -18 35 c-9 19 -33 45 -52 58 -50
34 -130 26 -222 -21 -37 -19 -68 -34 -68 -32 0 9 122 82 170 102 62 25 97 28
134 12z m-2268 -107 c42 -15 184 -97 184 -107 0 -2 -32 13 -71 33 -125 62
-220 47 -260 -43 l-19 -40 0 40 c0 71 48 135 100 135 8 -1 38 -9 66 -18z
m2243 -17 c18 -17 25 -37 28 -77 4 -52 4 -53 -10 -22 -19 40 -58 70 -102 78
-41 8 -123 -13 -182 -45 l-38 -21 29 25 c16 14 53 38 83 53 98 49 149 52 192
9z m-2146 -109 c29 -15 67 -38 83 -52 27 -23 25 -22 -36 6 -111 51 -200 37
-239 -38 l-20 -37 -1 33 c0 42 23 97 47 111 28 18 106 7 166 -23z m2104 -5
c15 -22 23 -49 23 -75 l0 -41 -17 34 c-39 80 -146 93 -260 32 -52 -28 -55 -28
-28 -6 17 14 61 41 100 61 93 47 148 45 182 -5z m-2059 -101 c32 -17 71 -41
87 -54 26 -22 22 -21 -35 7 -49 25 -77 32 -121 32 -62 0 -86 -14 -120 -70 -19
-30 -19 -30 -19 -5 0 45 20 99 43 115 31 23 95 13 165 -25z m1984 29 c25 -13
48 -68 48 -111 l-1 -33 -20 38 c-39 75 -129 85 -241 28 -32 -16 -58 -28 -58
-25 0 9 116 78 160 95 53 21 83 23 112 8z m-2857 -34 c20 -9 24 -14 12 -14
-35 -2 -79 -33 -93 -66 -8 -19 -14 -58 -15 -87 -1 -53 -1 -53 -11 -18 -5 19
-8 66 -6 104 5 93 37 116 113 81z m3669 -7 c12 -16 16 -47 16 -107 0 -86 -10
-104 -16 -31 -7 74 -53 128 -111 131 -28 1 37 28 69 29 17 0 33 -8 42 -22z
m-2739 -98 c84 -50 109 -75 38 -40 -108 54 -186 43 -234 -33 l-21 -32 6 49 c7
60 27 93 58 98 38 6 99 -11 153 -42z m1907 -1 c10 -18 18 -50 18 -69 l-1 -35
-17 32 c-39 73 -114 86 -219 39 -58 -26 -58 -26 -29 -2 36 30 110 67 150 76
49 10 79 -2 98 -41z m-2765 20 l28 -12 -32 -7 c-61 -14 -92 -62 -94 -142 l-1
-43 -10 40 c-12 50 -6 139 11 159 16 19 58 21 98 5z m3527 -11 c17 -24 21
-132 6 -178 -6 -20 -8 -14 -9 28 -2 84 -42 142 -101 142 l-25 1 25 14 c39 22
86 19 104 -7z m-3449 -81 c18 -10 17 -11 -12 -18 -18 -3 -40 -13 -49 -20 -23
-19 -44 -71 -45 -111 -1 -30 -2 -29 -10 12 -6 25 -7 64 -4 87 10 67 53 85 120
50z m3368 5 c24 -26 31 -72 21 -139 l-8 -58 -7 58 c-8 70 -45 117 -91 117 -37
0 -28 17 15 29 47 13 52 13 70 -7z m-2565 -27 c85 -43 120 -77 41 -40 -96 44
-167 31 -210 -39 -19 -30 -19 -30 -19 -6 0 42 20 99 38 109 32 19 79 11 150
-24z m1812 25 c21 -11 40 -60 40 -104 l0 -31 -19 31 c-43 70 -114 83 -211 39
-47 -22 -51 -22 -30 -5 42 34 141 80 172 80 16 0 38 -4 48 -10z m-2566 -83
l28 -12 -40 -18 c-40 -17 -48 -30 -70 -107 -9 -32 -10 -28 -11 39 -1 103 22
128 93 98z m3243 5 c24 -15 35 -66 27 -127 l-7 -60 -9 45 c-11 65 -28 91 -71
110 l-39 18 29 10 c35 13 54 14 70 4z m-2447 -48 c25 -14 59 -36 75 -49 l30
-24 -52 26 c-63 30 -128 39 -163 21 -13 -7 -35 -29 -48 -48 l-25 -35 7 49 c9
70 38 100 90 91 22 -3 61 -17 86 -31z m1720 26 c21 -11 40 -60 40 -103 l0 -30
-23 34 c-12 18 -34 40 -47 47 -35 18 -102 9 -160 -21 -28 -14 -50 -24 -50 -21
0 8 111 76 148 89 45 17 68 18 92 5z m-2435 -74 l30 -13 -38 -7 c-48 -9 -77
-52 -78 -116 0 -34 -2 -40 -9 -25 -12 28 -12 133 0 156 12 22 50 24 95 5z
m3105 -5 c13 -25 13 -148 0 -156 -6 -4 -10 11 -10 38 0 54 -27 93 -73 106
l-32 8 25 11 c40 17 78 14 90 -7z m-2355 -47 c27 -14 64 -37 80 -50 l30 -26
-53 27 c-87 43 -185 30 -199 -26 -3 -10 -9 -19 -14 -19 -14 0 2 83 19 103 22
25 78 21 137 -9z m1642 18 c15 -10 33 -57 33 -88 0 -25 -1 -25 -34 10 -43 46
-94 51 -176 15 -60 -27 -35 -1 40 40 53 30 111 39 137 23z m-2310 -61 c16 -9
16 -10 -5 -11 -54 0 -91 -48 -93 -117 l-1 -38 -10 40 c-13 53 -4 126 17 141
17 13 55 6 92 -15z m2953 -2 c12 -21 12 -115 1 -144 -6 -15 -9 -5 -13 34 -4
43 -11 60 -32 78 -15 13 -36 23 -47 23 -29 0 -14 18 24 28 38 10 54 6 67 -19z
m-2243 -59 c74 -37 109 -71 42 -40 -58 26 -119 26 -153 -1 -14 -11 -26 -27
-26 -35 0 -8 -4 -14 -8 -14 -13 0 2 86 18 104 19 24 60 19 127 -14z m1556 12
c9 -10 19 -38 23 -62 l7 -45 -35 38 c-31 32 -41 37 -79 37 -24 0 -64 -10 -89
-21 -63 -28 -31 1 44 40 66 35 106 39 129 13z m-2226 -24 c38 -14 42 -23 11
-25 -32 -3 -59 -36 -73 -89 l-12 -49 -7 56 c-7 54 -2 82 17 107 12 15 22 15
64 0z m2837 -10 c17 -23 19 -82 6 -133 l-8 -30 -1 33 c-2 51 -28 99 -61 110
-16 6 -31 8 -34 5 -3 -4 -6 -3 -6 0 0 9 52 36 72 37 9 0 24 -10 32 -22z
m-2119 -83 c23 -13 52 -33 65 -44 l25 -20 -39 19 c-83 41 -152 34 -181 -19
-14 -26 -14 -26 -15 17 0 83 52 100 145 47z m1454 18 c13 -11 23 -35 27 -63
l6 -45 -24 27 c-48 54 -87 60 -165 23 -29 -13 -53 -22 -53 -19 0 8 103 70 135
82 42 15 50 14 74 -5z m-2091 -16 c22 -13 22 -13 -11 -25 -36 -13 -57 -46 -57
-87 0 -14 -4 -25 -10 -25 -11 0 -14 108 -4 134 7 19 50 20 82 3z m2694 -24 c5
-18 4 -54 -1 -80 -5 -27 -9 -38 -10 -25 -2 46 -30 92 -63 107 l-33 14 25 10
c45 18 73 10 82 -26z m-2623 -67 l23 -13 -30 -6 c-36 -7 -62 -48 -63 -99 0
-28 -2 -30 -9 -13 -10 24 -13 106 -4 129 7 19 50 20 83 2z m594 -7 c46 -24 95
-59 81 -59 -5 1 -20 7 -34 15 -31 18 -111 19 -132 3 -8 -7 -20 -22 -26 -33
-10 -17 -11 -15 -12 18 0 79 40 98 123 56z m1385 9 c5 -7 13 -33 17 -58 l8
-45 -31 33 c-24 26 -38 32 -71 32 -23 0 -57 -7 -77 -15 -49 -20 -32 0 29 35
55 31 108 39 125 18z m570 -57 c2 -36 -2 -69 -7 -74 -8 -8 -11 0 -11 26 0 42
-35 87 -67 87 -16 1 -16 2 2 16 11 8 34 14 50 12 30 -3 30 -4 33 -67z m-2499
-22 c34 -12 42 -29 13 -29 -28 0 -52 -32 -61 -81 l-8 -44 -8 58 c-5 38 -4 67
4 83 12 27 16 28 60 13z m2419 -1 c14 -14 15 -103 2 -133 -7 -16 -9 -13 -9 16
-1 42 -32 86 -64 91 -21 3 -20 4 8 20 36 21 47 22 63 6z m-1831 -33 c64 -32
95 -63 40 -40 -63 26 -125 14 -145 -29 -9 -18 -11 -16 -11 17 -2 81 30 95 116
52z m1291 13 c7 -7 12 -29 12 -50 l0 -37 -26 24 c-32 29 -77 32 -132 10 -52
-22 -24 4 42 39 53 28 85 33 104 14z m-1804 -69 l25 -12 -32 -21 c-20 -14 -35
-35 -43 -61 l-11 -40 -6 48 c-7 53 5 97 27 97 8 0 26 -5 40 -11z m2274 -1 c13
-13 14 -69 2 -108 -8 -23 -8 -24 -9 -3 -2 38 -23 71 -53 84 l-30 12 24 13 c29
17 51 17 66 2z m-1695 -61 c55 -34 56 -44 2 -21 -44 18 -80 12 -112 -18 l-23
-21 0 36 c0 73 43 81 133 24z m1168 33 c14 -8 19 -21 19 -52 l0 -42 -20 21
c-34 37 -58 38 -145 8 l-20 -7 20 17 c17 14 112 65 123 65 2 0 12 -5 23 -10z
m-1671 -65 c14 -8 19 -14 11 -15 -26 0 -61 -42 -61 -72 0 -17 -4 -27 -10 -23
-11 7 -14 108 -3 118 10 11 36 8 63 -8z m2134 -12 c3 -16 2 -46 -2 -68 l-7
-40 -13 43 c-10 33 -21 47 -43 56 l-30 13 23 11 c42 20 66 15 72 -15z m-1621
-39 c40 -21 92 -61 62 -49 -11 5 -39 10 -63 13 -35 3 -48 0 -68 -19 l-24 -22
0 30 c0 17 3 38 6 47 8 21 46 20 87 0z m1125 -34 l3 -45 -23 23 c-26 24 -69
29 -112 12 -40 -15 -31 -3 22 31 31 20 57 29 77 27 28 -3 30 -6 33 -48z
m-1580 3 c33 -14 34 -17 15 -20 -29 -6 -53 -39 -54 -78 0 -26 -2 -27 -9 -10
-10 24 -13 109 -3 118 9 9 8 9 51 -10z m2000 -43 c2 -29 -2 -58 -7 -63 -8 -8
-11 -4 -11 14 0 30 -26 69 -46 69 -24 0 -16 18 14 28 41 15 47 10 50 -48z
m-1502 -31 c52 -25 83 -56 40 -39 -41 15 -71 12 -100 -11 l-26 -20 0 33 c0 33
14 58 34 58 5 0 29 -9 52 -21z m1028 5 c3 -9 6 -29 6 -45 l0 -30 -29 22 c-29
22 -60 23 -106 4 -38 -16 3 22 48 44 50 25 73 26 81 5z m-1456 -18 l24 -13
-26 -16 c-14 -10 -29 -32 -34 -50 l-9 -32 -8 47 c-12 75 3 92 53 64z m1860
-31 c2 -23 -1 -52 -7 -65 l-10 -25 0 28 c-1 19 -12 39 -31 57 l-29 27 22 11
c38 19 52 10 55 -33z m-1361 -76 c51 -32 155 -152 207 -240 95 -158 153 -336
163 -496 l6 -93 28 0 c28 0 29 2 29 49 0 169 86 423 201 593 91 133 230 247
266 217 52 -44 -46 -299 -235 -606 -81 -132 -81 -133 -59 -148 25 -18 18 -24
97 95 170 256 376 490 433 490 11 0 9 -59 -4 -105 -60 -216 -299 -513 -520
-646 -51 -31 -55 -36 -46 -57 12 -27 17 -27 68 -1 127 64 374 83 532 40 150
-40 277 -121 277 -176 0 -78 -262 -87 -589 -22 l-113 23 -8 -20 c-4 -12 -5
-24 -1 -28 3 -3 86 -27 184 -52 274 -71 464 -152 430 -186 -6 -7 -49 -14 -95
-17 -212 -13 -510 82 -668 212 -57 46 -67 49 -83 24 -7 -11 -1 -27 24 -60 78
-102 119 -240 119 -404 0 -120 -19 -218 -56 -285 -32 -60 -47 -67 -73 -34 -42
54 -69 198 -78 427 l-6 157 -27 0 -27 0 -6 -172 c-4 -95 -13 -207 -21 -248
-15 -85 -51 -176 -71 -184 -23 -8 -63 51 -87 127 -19 60 -23 95 -23 212 0 119
4 151 24 215 28 91 49 132 96 194 20 27 35 49 33 50 -2 1 -11 7 -20 15 -14 11
-26 6 -80 -37 -35 -26 -83 -60 -108 -74 -122 -69 -321 -125 -475 -134 -99 -6
-185 6 -185 26 0 5 17 20 38 33 77 49 248 107 472 162 63 15 116 29 118 30 2
2 0 14 -3 27 l-6 25 -88 -18 c-180 -37 -311 -51 -435 -47 -136 4 -186 21 -186
61 0 32 62 89 139 127 105 52 199 72 341 73 136 1 215 -14 322 -59 59 -25 63
-25 75 -8 7 10 13 20 12 23 0 3 -39 31 -87 61 -203 130 -424 412 -486 619 -17
59 -21 111 -8 111 24 0 110 -71 169 -139 77 -88 215 -272 288 -384 28 -42 52
-77 55 -77 3 1 13 7 23 15 18 13 13 22 -71 162 -184 305 -278 543 -231 590 13
13 44 4 96 -28z m-425 18 c15 -12 15 -14 -3 -26 -11 -6 -26 -26 -32 -44 l-11
-32 -7 40 c-13 69 9 95 53 62z m1713 2 c4 -6 4 -31 0 -57 l-7 -47 -15 37 c-8
21 -24 40 -36 44 -20 6 -20 7 4 20 29 16 46 17 54 3z m-1643 -112 c-13 -6 -26
-23 -29 -39 -3 -15 -9 -25 -14 -22 -10 6 -12 87 -3 97 4 3 21 -1 38 -10 l31
-16 -23 -10z m1569 -32 l-7 -40 -11 33 c-7 18 -19 35 -27 38 -19 7 -11 23 18
33 27 11 36 -10 27 -64z m1752 -870 c110 -110 125 -197 46 -267 -45 -41 -75
-52 -42 -15 33 36 43 63 43 114 -1 67 -29 123 -102 200 -74 79 -29 52 55 -32z
m-5076 26 c-75 -81 -101 -137 -95 -206 3 -39 12 -64 33 -91 l29 -38 -34 20
c-43 25 -80 78 -80 114 0 48 49 126 121 194 38 36 72 66 75 66 4 0 -18 -27
-49 -59z m99 -1 c-31 -32 -65 -78 -76 -102 -32 -71 -24 -146 22 -195 36 -38 2
-26 -41 15 -78 74 -63 143 59 265 92 91 119 104 36 17z m100 0 c-106 -111
-125 -212 -54 -287 33 -35 6 -27 -39 12 -22 19 -44 46 -47 61 -15 58 34 142
132 227 31 26 57 47 60 47 3 0 -21 -27 -52 -60z m4587 -32 c48 -48 86 -116 87
-153 0 -31 -33 -78 -70 -99 l-34 -19 24 33 c56 78 32 175 -68 276 -44 44 -49
52 -22 33 19 -13 57 -45 83 -71z m100 0 c50 -50 86 -116 87 -156 0 -33 -26
-74 -64 -100 -42 -28 -55 -28 -29 1 73 80 53 183 -59 296 -43 44 -46 50 -18
30 19 -13 57 -45 83 -71z m98 0 c100 -102 113 -183 38 -250 -45 -41 -75 -52
-42 -15 32 35 43 62 43 109 -1 61 -30 119 -97 190 -47 50 -51 57 -23 38 19
-14 56 -46 81 -72z m-4690 27 c-100 -106 -117 -200 -49 -272 36 -38 0 -26 -44
15 -55 52 -57 100 -6 174 29 41 132 138 147 138 2 0 -19 -25 -48 -55z m97 -2
c-92 -97 -110 -184 -52 -253 30 -35 24 -38 -22 -9 -42 25 -54 47 -54 94 0 40
11 65 48 110 23 28 122 115 131 115 2 0 -21 -26 -51 -57z m105 5 c-52 -53 -92
-124 -93 -164 0 -11 11 -41 23 -67 l24 -46 -28 15 c-97 50 -71 165 59 269 32
25 59 45 62 45 2 0 -19 -24 -47 -52z m4110 -47 c16 -19 39 -55 49 -78 19 -42
19 -45 1 -81 -10 -20 -33 -45 -52 -56 l-34 -20 22 31 c54 72 31 165 -64 258
l-50 49 49 -34 c26 -19 62 -51 79 -69z m76 21 c37 -37 64 -74 76 -106 18 -48
18 -49 -1 -84 -10 -20 -35 -45 -54 -56 l-35 -21 24 34 c55 76 33 169 -63 263
-28 28 -41 46 -28 39 12 -7 49 -38 81 -69z m-4091 21 c-83 -87 -104 -168 -59
-232 29 -41 12 -40 -33 3 -44 41 -47 80 -11 142 22 37 125 134 143 134 3 0
-14 -21 -40 -47z m100 1 c-80 -79 -103 -166 -58 -226 28 -38 9 -35 -34 6 -44
41 -46 72 -10 133 21 36 126 133 144 133 2 0 -17 -21 -42 -46z m3789 -18 c57
-52 83 -98 83 -149 0 -29 -7 -41 -37 -66 -46 -38 -62 -40 -34 -5 50 64 32 151
-49 234 -58 59 -35 50 37 -14z m-3684 27 c-81 -71 -108 -169 -62 -227 28 -36
8 -33 -36 5 -23 20 -35 40 -35 57 0 39 46 108 101 152 58 45 79 54 32 13z
m3565 -10 c65 -53 102 -109 102 -153 0 -31 -7 -44 -35 -69 -43 -38 -64 -41
-36 -5 35 44 37 87 7 148 -15 30 -43 68 -62 85 -49 43 -30 39 24 -6z m-3465
12 c-11 -8 -35 -36 -52 -62 -35 -52 -42 -115 -16 -149 23 -30 18 -37 -14 -18
-72 42 -65 102 21 186 32 32 64 58 70 58 7 0 3 -7 -9 -15z m85 -12 c-64 -68
-86 -146 -53 -189 22 -30 18 -36 -15 -19 -70 36 -63 94 22 177 59 59 93 81 46
31z m3135 -52 c61 -68 60 -124 -4 -156 l-31 -17 16 23 c34 50 15 130 -48 198
l-31 34 31 -21 c17 -12 47 -39 67 -61z m100 0 c62 -69 61 -128 -3 -165 l-35
-21 18 28 c37 57 21 127 -46 204 l-32 37 31 -21 c17 -12 47 -40 67 -62z m88
12 c43 -47 59 -76 59 -108 0 -35 -13 -55 -52 -80 -33 -21 -34 -20 -8 30 30 58
14 115 -53 192 l-32 37 30 -21 c17 -12 42 -34 56 -50z m-3228 35 c-61 -66 -76
-124 -47 -179 l15 -30 -31 16 c-68 35 -58 100 28 175 49 44 67 53 35 18z m95
-5 c-55 -59 -70 -115 -44 -165 l15 -28 -29 15 c-67 35 -60 86 22 160 56 50 75
60 36 18z m2751 -48 c47 -54 51 -83 12 -117 -37 -33 -58 -37 -37 -6 33 47 19
103 -43 172 l-26 29 31 -21 c18 -12 46 -38 63 -57z m79 21 c69 -63 78 -113 29
-150 -42 -32 -53 -33 -33 -4 32 45 18 112 -36 174 -35 41 -16 31 40 -20z
m-2748 6 c-38 -48 -49 -102 -26 -137 23 -34 1 -32 -35 4 -26 26 -28 32 -18 60
9 25 91 111 106 111 2 0 -10 -17 -27 -38z m101 0 c-39 -48 -49 -94 -27 -127
20 -30 8 -32 -28 -4 -41 32 -34 64 24 121 60 58 72 62 31 10z m2345 -4 c72
-67 78 -105 21 -134 -28 -15 -30 -15 -22 2 24 59 18 89 -26 139 -42 48 -28 44
27 -7z m116 -15 c53 -55 57 -83 18 -117 -38 -32 -57 -34 -36 -4 30 43 18 96
-33 152 -40 44 5 17 51 -31z m-2365 17 c-31 -36 -42 -82 -28 -109 17 -30 14
-33 -19 -16 -44 23 -40 57 14 111 49 50 70 59 33 14z m2170 -22 c47 -49 48
-80 3 -103 -34 -17 -35 -16 -19 19 15 32 6 67 -28 107 -36 43 -1 25 44 -23z
m-2093 -387 c-2 -2 -17 2 -34 9 -29 12 -30 14 -14 31 17 19 18 18 34 -8 10
-16 16 -30 14 -32z m2029 18 c-5 -4 -21 -11 -38 -15 -29 -7 -30 -7 -12 13 9
11 17 26 17 33 0 9 6 8 20 -5 11 -10 17 -22 13 -26z m-2143 -1 c0 -6 7 -20 17
-30 15 -17 15 -18 -1 -18 -10 0 -26 5 -37 10 -15 9 -17 15 -9 30 12 22 30 27
30 8z m2231 -4 c11 -14 10 -18 -6 -30 -10 -8 -27 -14 -38 -14 -17 0 -17 1 -3
16 9 8 16 22 16 30 0 19 14 18 31 -2z m-2321 -33 c0 -10 7 -24 15 -31 22 -18
13 -22 -23 -9 -34 12 -40 27 -20 47 17 17 28 15 28 -7z m2420 -16 c0 -10 -47
-35 -66 -35 -2 0 7 15 19 34 16 25 25 31 35 24 6 -6 12 -16 12 -23z m-2490
-63 c-4 -1 -19 2 -33 7 -29 11 -34 30 -16 48 9 9 17 4 34 -20 12 -18 18 -33
15 -35z m2570 16 c-12 -10 -31 -18 -41 -18 -18 0 -18 1 1 20 11 11 20 27 20
37 0 14 2 14 21 -3 l21 -19 -22 -17z m-2690 7 c0 -9 11 -27 25 -41 25 -25 25
-25 3 -19 -13 4 -33 13 -45 21 -20 12 -21 17 -11 34 15 24 28 26 28 5z m2790
-4 c15 -28 14 -31 -25 -47 -49 -20 -62 -17 -31 7 14 11 26 29 26 40 0 25 16
25 30 0z m-2857 -68 c24 -27 9 -30 -33 -8 -34 18 -37 31 -12 58 17 19 17 19
20 -4 2 -13 13 -34 25 -46z m2957 22 c0 -18 -20 -32 -55 -40 l-30 -8 23 22
c12 12 22 34 22 48 0 25 0 26 20 8 11 -10 20 -24 20 -30z m-3044 -62 c35 -23
23 -27 -25 -7 -45 18 -51 36 -23 67 17 19 17 19 20 -12 2 -20 12 -37 28 -48z
m3134 27 c0 -11 -14 -24 -40 -34 -53 -21 -53 -21 -19 13 16 16 29 37 29 46 0
14 3 15 15 5 8 -7 15 -20 15 -30z m-3224 -59 c31 -24 18 -27 -30 -7 -45 19
-51 31 -29 60 l18 24 8 -28 c4 -16 19 -38 33 -49z m3324 28 c0 -11 -38 -35
-70 -44 l-25 -8 28 28 c15 16 27 39 27 54 l1 26 19 -24 c11 -13 20 -27 20 -32z
m-3413 -66 l28 -23 -35 10 c-19 5 -43 19 -54 29 -19 19 -19 20 -1 48 l19 28 7
-35 c4 -20 19 -44 36 -57z m3503 36 c0 -18 -31 -39 -80 -54 -23 -7 -23 -6 8
23 21 20 32 39 32 58 0 26 0 27 20 9 11 -10 20 -26 20 -36z m-3597 -65 l32
-27 -30 7 c-70 17 -92 51 -57 89 17 19 17 19 20 -11 2 -20 15 -41 35 -58z
m3687 35 c0 -21 -32 -44 -74 -55 l-30 -7 33 29 c20 18 33 40 34 56 2 25 3 25
20 11 9 -9 17 -24 17 -34z m-3815 10 c-12 -18 16 -67 49 -89 28 -19 28 -21 6
-14 -41 11 -81 34 -87 50 -6 17 15 64 29 64 5 0 6 -5 3 -11z m3915 -41 c0 -14
-41 -45 -75 -55 l-34 -11 34 33 c24 22 35 41 35 61 l0 29 20 -25 c11 -14 20
-28 20 -32z m-3968 -72 c30 -26 31 -27 8 -21 -41 12 -81 35 -86 50 -3 7 3 26
12 41 l19 27 6 -34 c5 -20 21 -45 41 -63z m4056 35 c-3 -15 -47 -44 -85 -55
-18 -6 -16 -1 12 27 23 23 35 45 35 64 l1 28 20 -24 c11 -13 19 -31 17 -40z
m-4164 -53 c12 -12 31 -28 42 -35 16 -10 13 -10 -15 -3 -41 11 -80 36 -88 56
-3 8 3 26 13 42 l19 27 3 -32 c2 -17 13 -42 26 -55z m4256 26 c0 -17 -11 -29
-40 -44 -55 -28 -67 -25 -31 9 22 21 31 38 31 62 0 31 0 32 20 14 11 -10 20
-29 20 -41z m-4356 -53 c5 -7 22 -22 40 -33 l31 -20 -30 7 c-80 17 -115 66
-78 107 18 20 18 20 24 -14 3 -18 9 -40 13 -47z m4435 55 c7 -13 11 -32 9 -42
-3 -19 -45 -47 -88 -59 -21 -6 -19 -3 14 27 29 25 39 42 40 66 1 38 8 40 25 8z
m-4544 -17 c-10 -31 13 -76 51 -100 45 -27 43 -31 -8 -13 -76 27 -96 56 -68
102 22 36 34 42 25 11z m4655 -44 c0 -22 -38 -53 -86 -69 -51 -17 -57 -13 -14
9 36 19 64 68 57 104 l-5 26 24 -28 c13 -16 24 -34 24 -42z m-4748 5 c-5 -36
17 -73 61 -101 27 -18 28 -20 7 -13 -67 19 -110 49 -110 78 0 11 36 66 44 66
1 0 1 -14 -2 -30z m4838 -40 c0 -22 -25 -44 -74 -64 -52 -22 -68 -20 -30 3 42
25 64 59 64 96 l1 30 19 -24 c11 -13 20 -31 20 -41z m-2572 -150 c24 0 25 -1
7 -20 -22 -24 -48 -13 -71 32 l-16 31 27 -21 c15 -12 39 -22 53 -22z m326 5
c-26 -40 -48 -48 -69 -25 -18 19 -17 20 7 20 14 0 36 9 49 19 31 25 35 20 13
-14z m-337 -95 c21 0 24 -2 13 -15 -20 -24 -47 -17 -74 18 -35 45 -33 54 5 23
17 -14 42 -26 56 -26z m367 28 c-29 -53 -71 -71 -94 -43 -10 13 -9 15 11 15
13 0 38 9 54 19 37 24 38 24 29 9z m-389 -112 c38 -1 42 -5 23 -24 -26 -26
-71 -3 -100 53 -9 17 -7 16 16 -4 16 -16 39 -25 61 -25z m409 32 c-38 -66 -73
-85 -102 -56 -19 19 -14 25 16 20 21 -3 37 4 58 22 33 29 38 31 28 14z m-413
-126 c31 5 36 -1 17 -20 -22 -22 -56 -13 -81 21 -42 56 -42 63 -3 29 30 -26
46 -33 67 -30z m428 36 c-31 -60 -78 -85 -107 -56 -19 19 -14 25 17 20 21 -3
37 4 62 27 41 37 43 37 28 9z m-479 -118 c16 -7 39 -10 50 -7 23 6 26 -3 8
-21 -22 -22 -55 -13 -87 23 -17 20 -31 41 -31 48 0 6 7 2 15 -9 8 -12 28 -27
45 -34z m484 10 c-29 -44 -61 -58 -93 -40 -28 15 -27 28 3 23 25 -5 75 16 95
41 25 29 21 16 -5 -24z m31 -67 c-46 -73 -85 -91 -118 -55 -15 16 -14 17 24
17 31 0 46 7 71 33 40 39 46 40 23 5z m-509 -39 c13 -3 31 -4 39 0 26 10 16
-14 -11 -26 -33 -15 -67 3 -97 52 l-22 35 33 -28 c19 -15 44 -30 58 -33z m4
-89 c37 0 38 -1 23 -17 -27 -30 -58 -22 -97 24 -46 54 -47 72 -1 28 28 -27 44
-35 75 -35z m530 55 c0 -5 -16 -28 -36 -50 -41 -45 -71 -51 -100 -19 -18 20
-18 20 8 14 31 -8 94 19 111 47 13 20 17 22 17 8z m-575 -140 c19 -6 45 -8 57
-4 23 7 23 6 4 -15 -34 -37 -74 -24 -122 40 -32 43 -31 59 1 20 14 -16 41 -35
60 -41z m578 29 c-39 -67 -94 -87 -129 -48 -19 22 -19 22 8 15 33 -8 85 12
112 43 27 30 30 26 9 -10z m-590 -118 c16 -6 40 -8 55 -5 27 7 27 7 8 -15 -11
-11 -29 -21 -42 -21 -28 0 -73 37 -98 81 l-19 34 34 -32 c19 -17 47 -37 62
-42z m613 40 c-19 -36 -72 -81 -96 -81 -10 0 -28 9 -41 21 l-24 20 27 -5 c35
-8 90 15 119 48 29 34 33 33 15 -3z m-632 -125 c26 -9 50 -11 70 -5 l31 8 -28
-24 c-15 -14 -37 -25 -47 -25 -25 0 -87 55 -107 94 l-15 31 28 -33 c16 -18 47
-39 68 -46z m641 27 c-54 -73 -89 -88 -133 -57 -29 20 -29 36 1 25 37 -14 76
-1 115 38 20 20 39 35 41 34 2 -1 -9 -19 -24 -40z m-607 -121 l55 5 -27 -24
c-32 -27 -57 -29 -92 -6 -21 13 -84 93 -84 106 0 2 21 -16 46 -41 46 -43 48
-44 102 -40z m635 47 c-25 -44 -80 -89 -106 -89 -23 0 -67 25 -67 38 0 4 22 5
49 4 46 -4 53 -1 93 37 24 22 44 41 46 41 2 0 -5 -14 -15 -31z m-696 -136 c14
-3 43 -3 66 0 l42 6 -28 -25 c-15 -13 -39 -24 -53 -24 -28 0 -91 54 -118 102
-18 32 -18 32 24 -10 24 -23 54 -45 67 -49z m716 56 c-25 -43 -89 -99 -113
-99 -21 0 -70 27 -70 39 0 3 20 5 45 3 50 -4 104 22 132 64 22 35 27 29 6 -7z
m-743 -139 c17 -7 50 -10 75 -7 36 4 43 2 35 -8 -6 -7 -25 -19 -41 -26 -27
-11 -36 -10 -64 5 -18 10 -46 37 -62 60 -46 64 -49 75 -10 30 20 -23 50 -47
67 -54z m764 58 c-37 -63 -91 -108 -128 -108 -8 0 -27 10 -41 23 l-27 22 45
-3 c50 -4 89 12 126 52 26 28 37 34 25 14z m4 -105 c-37 -52 -90 -93 -119 -93
-10 0 -31 11 -46 25 l-28 25 32 -6 c58 -11 99 4 145 51 24 25 45 45 46 45 2 0
-11 -21 -30 -47z m-764 -49 c15 -3 42 -4 62 -2 l37 4 -27 -23 c-31 -27 -47
-28 -84 -9 -31 16 -61 47 -88 91 -17 27 -14 26 28 -12 26 -23 58 -45 72 -49z
m810 4 c-73 -128 -155 -166 -216 -101 -22 25 -22 25 -1 14 40 -21 97 -13 141
19 23 16 49 41 58 55 16 25 31 36 18 13z m-850 -82 c40 -19 88 -21 119 -5 19
10 18 7 -5 -17 -41 -42 -87 -39 -136 9 -21 20 -46 51 -56 69 l-18 33 30 -36
c17 -20 47 -44 66 -53z m-7 -93 c39 -16 87 -17 116 -2 21 11 21 11 -1 -14 -52
-55 -118 -38 -183 48 -49 66 -50 78 -1 24 20 -23 51 -48 69 -56z m867 75 c-23
-41 -81 -102 -110 -115 -27 -13 -38 -14 -63 -4 -16 7 -38 22 -48 33 -18 21
-18 21 4 9 30 -15 88 -14 121 3 15 8 43 30 61 50 36 37 47 45 35 24z"/>
</g>
</svg>
