<?xml version="1.0" encoding="UTF-8" standalone="no"?>
<svg
   viewBox="0 0 448 512"
   version="1.1"
   id="svg4"
   sodipodi:docname="arrow-right.svg"
   inkscape:version="1.2.1 (9c6d41e410, 2022-07-14)"
   xmlns:inkscape="http://www.inkscape.org/namespaces/inkscape"
   xmlns:sodipodi="http://sodipodi.sourceforge.net/DTD/sodipodi-0.dtd"
   xmlns="http://www.w3.org/2000/svg"
   xmlns:svg="http://www.w3.org/2000/svg">
  <defs
     id="defs8" />
  <sodipodi:namedview
     id="namedview6"
     pagecolor="#ffffff"
     bordercolor="#000000"
     borderopacity="0.25"
     inkscape:showpageshadow="2"
     inkscape:pageopacity="0.0"
     inkscape:pagecheckerboard="0"
     inkscape:deskcolor="#d1d1d1"
     showgrid="false"
     inkscape:zoom="1.6347656"
     inkscape:cx="190.54719"
     inkscape:cy="256.30585"
     inkscape:window-width="1920"
     inkscape:window-height="1017"
     inkscape:window-x="-8"
     inkscape:window-y="-8"
     inkscape:window-maximized="1"
     inkscape:current-layer="svg4" />
  <!--! Font Awesome Free 6.2.1 by @fontawesome - https://fontawesome.com License - https://fontawesome.com/license/free (Icons: CC BY 4.0, Fonts: SIL OFL 1.1, Code: MIT License) Copyright 2022 Fonticons, Inc. -->
  <path
     d="M438.6 278.6c12.5-12.5 12.5-32.8 0-45.3l-160-160c-12.5-12.5-32.8-12.5-45.3 0s-12.5 32.8 0 45.3L338.8 224 32 224c-17.7 0-32 14.3-32 32s14.3 32 32 32l306.7 0L233.4 393.4c-12.5 12.5-12.5 32.8 0 45.3s32.8 12.5 45.3 0l160-160z"
     id="path2" />
  <path
     style="fill:#ffffff;stroke-width:0.6;stroke-linejoin:bevel;paint-order:markers fill stroke;stroke-dasharray:none"
     d="m 246.19854,446.07262 c -11.4669,-3.90988 -19.77789,-13.95123 -21.51626,-25.99597 -0.56752,-3.93223 -0.51333,-5.54904 0.32247,-9.62026 2.18001,-10.61904 -1.14824,-6.83963 59.65967,-67.74671 l 54.81145,-54.90084 H 184.36386 c -152.728003,0 -155.184988,-0.0187 -159.860466,-1.21445 -9.255981,-2.36728 -16.8507123,-8.46143 -20.7295317,-16.63373 -4.62772237,-9.75018 -4.63189097,-18.1619 -0.013823,-27.89258 3.9106056,-8.23999 11.4307977,-14.28072 20.7433547,-16.66247 4.675479,-1.19579 7.132471,-1.21445 159.863706,-1.21445 H 339.48235 L 284.6967,169.29032 c -59.39746,-59.52235 -57.46533,-57.37253 -59.56364,-66.27437 -2.54408,-10.792942 0.97696,-22.179029 9.25262,-29.920511 6.48711,-6.068369 12.79248,-8.560194 21.66091,-8.560194 6.55938,0 11.77224,1.492866 16.81952,4.816798 2.37008,1.560845 32.36289,31.175197 86.58785,85.495287 89.23976,89.39631 84.83228,84.67728 87.12213,93.28057 2.0154,7.57215 0.46604,17.68357 -3.76215,24.55249 -2.40611,3.90884 -165.54564,167.06645 -169.94783,169.96666 -7.46691,4.91927 -18.23149,6.30203 -26.66757,3.42557 z"
     id="path306" />
</svg>
